<svg xmlns="http://www.w3.org/2000/svg" width="380" height="460" viewBox="0 0 380 460">
  <!-- farm-smoke-rise-7: a column of smoke leaning with the wind over a low orange glow, frame 7 of 8
       Claude-drawn stand-in (temporary: replace with Astra's farm-smoke-rise-7). Generated by scripts/claude-art/areas/land-effects.mjs; do not hand-edit. -->
  <g stroke-linejoin="round" stroke-linecap="round"><defs><radialGradient id="farm-smoke-rise-7-glow"><stop offset="0" stop-color="#ffcf6a" stop-opacity="0.8"/><stop offset="0.45" stop-color="#e2772a" stop-opacity="0.45"/><stop offset="1" stop-color="#b8401c" stop-opacity="0"/></radialGradient></defs><ellipse cx="138" cy="442" rx="36.8" ry="12.3" fill="url(#farm-smoke-rise-7-glow)"/><g opacity="0.040999999999999995"><circle cx="290.5" cy="69.8" r="34.5" fill="#23180f"/><circle cx="281.1" cy="82.1" r="33.5" fill="#23180f"/><circle cx="253.7" cy="86.6" r="28.9" fill="#23180f"/><circle cx="248.4" cy="84.7" r="25" fill="#23180f"/><circle cx="242.9" cy="68.1" r="35.5" fill="#23180f"/><circle cx="244.6" cy="58.4" r="28.2" fill="#23180f"/><circle cx="261.4" cy="44.7" r="34.1" fill="#23180f"/><circle cx="268.8" cy="47.5" r="28.6" fill="#23180f"/><circle cx="283.5" cy="62.2" r="25.3" fill="#23180f"/><circle cx="262.2" cy="67.2" r="32.1" fill="#23180f"/><circle cx="290.5" cy="69.8" r="32.9" fill="#797674"/><circle cx="281.1" cy="82.1" r="31.9" fill="#797674"/><circle cx="253.7" cy="86.6" r="27.3" fill="#797674"/><circle cx="248.4" cy="84.7" r="23.4" fill="#797674"/><circle cx="242.9" cy="68.1" r="33.9" fill="#797674"/><circle cx="244.6" cy="58.4" r="26.6" fill="#797674"/><circle cx="261.4" cy="44.7" r="32.5" fill="#797674"/><circle cx="268.8" cy="47.5" r="27" fill="#797674"/><circle cx="283.5" cy="62.2" r="23.7" fill="#797674"/><circle cx="262.2" cy="67.2" r="30.5" fill="#797674"/><circle cx="285" cy="63.1" r="26.3" fill="#93908e"/><circle cx="275.6" cy="75.5" r="25.5" fill="#93908e"/><circle cx="248.1" cy="80" r="21.9" fill="#93908e"/><circle cx="242.8" cy="78.1" r="18.7" fill="#93908e"/><circle cx="237.3" cy="61.5" r="27.1" fill="#93908e"/><circle cx="239.1" cy="51.7" r="21.3" fill="#93908e"/><circle cx="255.9" cy="38" r="26" fill="#93908e"/><circle cx="263.3" cy="40.9" r="21.6" fill="#93908e"/><circle cx="278" cy="55.6" r="18.9" fill="#93908e"/><circle cx="256.7" cy="60.5" r="24.4" fill="#93908e"/><circle cx="279.4" cy="56.5" r="13.8" fill="#a2a09e"/><circle cx="270" cy="68.8" r="13.4" fill="#a2a09e"/><circle cx="242.6" cy="73.3" r="11.5" fill="#a2a09e"/><circle cx="237.3" cy="71.4" r="9.8" fill="#a2a09e"/><circle cx="231.8" cy="54.8" r="14.2" fill="#a2a09e"/><circle cx="233.5" cy="45.1" r="11.2" fill="#a2a09e"/><circle cx="250.3" cy="31.4" r="13.6" fill="#a2a09e"/><circle cx="257.7" cy="34.2" r="11.3" fill="#a2a09e"/><circle cx="272.4" cy="48.9" r="9.9" fill="#a2a09e"/><circle cx="251.1" cy="53.9" r="12.8" fill="#a2a09e"/></g><g opacity="0.204"><circle cx="264.6" cy="89.3" r="33.9" fill="#23180f"/><circle cx="255" cy="100.1" r="33.8" fill="#23180f"/><circle cx="236.7" cy="107.7" r="26" fill="#23180f"/><circle cx="223.5" cy="100.9" r="33.7" fill="#23180f"/><circle cx="216.1" cy="93.8" r="24.2" fill="#23180f"/><circle cx="222.4" cy="78.5" r="26.6" fill="#23180f"/><circle cx="231.3" cy="71.4" r="29.3" fill="#23180f"/><circle cx="250.8" cy="73.5" r="32.5" fill="#23180f"/><circle cx="264.8" cy="76.7" r="30.7" fill="#23180f"/><circle cx="240.8" cy="87.8" r="30.9" fill="#23180f"/><circle cx="264.6" cy="89.3" r="32.3" fill="#797674"/><circle cx="255" cy="100.1" r="32.2" fill="#797674"/><circle cx="236.7" cy="107.7" r="24.4" fill="#797674"/><circle cx="223.5" cy="100.9" r="32.1" fill="#797674"/><circle cx="216.1" cy="93.8" r="22.6" fill="#797674"/><circle cx="222.4" cy="78.5" r="25" fill="#797674"/><circle cx="231.3" cy="71.4" r="27.7" fill="#797674"/><circle cx="250.8" cy="73.5" r="30.9" fill="#797674"/><circle cx="264.8" cy="76.7" r="29.1" fill="#797674"/><circle cx="240.8" cy="87.8" r="29.3" fill="#797674"/><circle cx="259.3" cy="82.9" r="25.9" fill="#93908e"/><circle cx="249.6" cy="93.7" r="25.8" fill="#93908e"/><circle cx="231.4" cy="101.3" r="19.6" fill="#93908e"/><circle cx="218.2" cy="94.5" r="25.7" fill="#93908e"/><circle cx="210.8" cy="87.4" r="18.1" fill="#93908e"/><circle cx="217.1" cy="72.1" r="20" fill="#93908e"/><circle cx="226" cy="65" r="22.2" fill="#93908e"/><circle cx="245.4" cy="67.1" r="24.7" fill="#93908e"/><circle cx="259.5" cy="70.3" r="23.3" fill="#93908e"/><circle cx="235.5" cy="81.4" r="23.4" fill="#93908e"/><circle cx="254" cy="76.5" r="13.6" fill="#a2a09e"/><circle cx="244.3" cy="87.3" r="13.5" fill="#a2a09e"/><circle cx="226.1" cy="95" r="10.3" fill="#a2a09e"/><circle cx="212.9" cy="88.1" r="13.5" fill="#a2a09e"/><circle cx="205.5" cy="81.1" r="9.5" fill="#a2a09e"/><circle cx="211.7" cy="65.7" r="10.5" fill="#a2a09e"/><circle cx="220.7" cy="58.6" r="11.6" fill="#a2a09e"/><circle cx="240.1" cy="60.7" r="13" fill="#a2a09e"/><circle cx="254.2" cy="63.9" r="12.2" fill="#a2a09e"/><circle cx="230.2" cy="75.1" r="12.3" fill="#a2a09e"/></g><g opacity="0.368"><circle cx="252.1" cy="110.6" r="25.3" fill="#23180f"/><circle cx="247.1" cy="121.8" r="26.4" fill="#23180f"/><circle cx="234.3" cy="125.3" r="30.9" fill="#23180f"/><circle cx="216.2" cy="122.1" r="23.1" fill="#23180f"/><circle cx="212.8" cy="106.4" r="27.4" fill="#23180f"/><circle cx="215.6" cy="99.1" r="28.6" fill="#23180f"/><circle cx="223" cy="93.4" r="30.6" fill="#23180f"/><circle cx="239.1" cy="95" r="32.5" fill="#23180f"/><circle cx="257.4" cy="95.2" r="31.1" fill="#23180f"/><circle cx="234.3" cy="108.5" r="29.7" fill="#23180f"/><circle cx="252.1" cy="110.6" r="23.7" fill="#797674"/><circle cx="247.1" cy="121.8" r="24.8" fill="#797674"/><circle cx="234.3" cy="125.3" r="29.3" fill="#797674"/><circle cx="216.2" cy="122.1" r="21.5" fill="#797674"/><circle cx="212.8" cy="106.4" r="25.8" fill="#797674"/><circle cx="215.6" cy="99.1" r="27" fill="#797674"/><circle cx="223" cy="93.4" r="29" fill="#797674"/><circle cx="239.1" cy="95" r="30.9" fill="#797674"/><circle cx="257.4" cy="95.2" r="29.5" fill="#797674"/><circle cx="234.3" cy="108.5" r="28.1" fill="#797674"/><circle cx="247" cy="104.5" r="19" fill="#93908e"/><circle cx="242" cy="115.7" r="19.8" fill="#93908e"/><circle cx="229.2" cy="119.1" r="23.4" fill="#93908e"/><circle cx="211.1" cy="116" r="17.2" fill="#93908e"/><circle cx="207.7" cy="100.3" r="20.7" fill="#93908e"/><circle cx="210.5" cy="92.9" r="21.6" fill="#93908e"/><circle cx="217.9" cy="87.3" r="23.2" fill="#93908e"/><circle cx="234" cy="88.9" r="24.7" fill="#93908e"/><circle cx="252.3" cy="89" r="23.6" fill="#93908e"/><circle cx="229.2" cy="102.4" r="22.4" fill="#93908e"/><circle cx="241.9" cy="98.4" r="10" fill="#a2a09e"/><circle cx="236.9" cy="109.5" r="10.4" fill="#a2a09e"/><circle cx="224.1" cy="113" r="12.3" fill="#a2a09e"/><circle cx="206" cy="109.9" r="9" fill="#a2a09e"/><circle cx="202.6" cy="94.2" r="10.9" fill="#a2a09e"/><circle cx="205.4" cy="86.8" r="11.4" fill="#a2a09e"/><circle cx="212.8" cy="81.2" r="12.2" fill="#a2a09e"/><circle cx="228.9" cy="82.8" r="13" fill="#a2a09e"/><circle cx="247.2" cy="82.9" r="12.4" fill="#a2a09e"/><circle cx="224.1" cy="96.3" r="11.8" fill="#a2a09e"/></g><g opacity="0.531"><circle cx="253.4" cy="134.4" r="23.7" fill="#23180f"/><circle cx="245.3" cy="145.2" r="22.1" fill="#23180f"/><circle cx="228.8" cy="146.9" r="29.1" fill="#23180f"/><circle cx="219.7" cy="136.9" r="27.8" fill="#23180f"/><circle cx="213.4" cy="131.8" r="31.7" fill="#23180f"/><circle cx="216" cy="115.6" r="25.2" fill="#23180f"/><circle cx="224.7" cy="115.1" r="27.7" fill="#23180f"/><circle cx="250.5" cy="111.9" r="25.2" fill="#23180f"/><circle cx="254.2" cy="117.5" r="26.6" fill="#23180f"/><circle cx="234.6" cy="129.2" r="28.4" fill="#23180f"/><circle cx="253.4" cy="134.4" r="22.1" fill="#797674"/><circle cx="245.3" cy="145.2" r="20.5" fill="#797674"/><circle cx="228.8" cy="146.9" r="27.5" fill="#797674"/><circle cx="219.7" cy="136.9" r="26.2" fill="#797674"/><circle cx="213.4" cy="131.8" r="30.1" fill="#797674"/><circle cx="216" cy="115.6" r="23.6" fill="#797674"/><circle cx="224.7" cy="115.1" r="26.1" fill="#797674"/><circle cx="250.5" cy="111.9" r="23.6" fill="#797674"/><circle cx="254.2" cy="117.5" r="25" fill="#797674"/><circle cx="234.6" cy="129.2" r="26.8" fill="#797674"/><circle cx="248.5" cy="128.5" r="17.7" fill="#93908e"/><circle cx="240.4" cy="139.3" r="16.4" fill="#93908e"/><circle cx="223.9" cy="141" r="22" fill="#93908e"/><circle cx="214.8" cy="131" r="21" fill="#93908e"/><circle cx="208.5" cy="125.9" r="24.1" fill="#93908e"/><circle cx="211.1" cy="109.7" r="18.9" fill="#93908e"/><circle cx="219.8" cy="109.2" r="20.9" fill="#93908e"/><circle cx="245.7" cy="106" r="18.9" fill="#93908e"/><circle cx="249.3" cy="111.6" r="20" fill="#93908e"/><circle cx="229.7" cy="123.3" r="21.5" fill="#93908e"/><circle cx="243.6" cy="122.7" r="9.3" fill="#a2a09e"/><circle cx="235.5" cy="133.5" r="8.6" fill="#a2a09e"/><circle cx="219" cy="135.2" r="11.5" fill="#a2a09e"/><circle cx="210" cy="125.2" r="11" fill="#a2a09e"/><circle cx="203.6" cy="120.1" r="12.7" fill="#a2a09e"/><circle cx="206.2" cy="103.9" r="9.9" fill="#a2a09e"/><circle cx="214.9" cy="103.4" r="11" fill="#a2a09e"/><circle cx="240.8" cy="100.2" r="9.9" fill="#a2a09e"/><circle cx="244.4" cy="105.8" r="10.5" fill="#a2a09e"/><circle cx="224.9" cy="117.5" r="11.3" fill="#a2a09e"/></g><g opacity="0.6940000000000001"><circle cx="231" cy="153.2" r="27.1" fill="#23180f"/><circle cx="220.8" cy="168.3" r="24.3" fill="#23180f"/><circle cx="209.8" cy="164" r="26.6" fill="#23180f"/><circle cx="197" cy="157.9" r="23.2" fill="#23180f"/><circle cx="195" cy="149.5" r="22.9" fill="#23180f"/><circle cx="199.8" cy="142.6" r="24.7" fill="#23180f"/><circle cx="201" cy="135.1" r="26.3" fill="#23180f"/><circle cx="216" cy="133.4" r="23" fill="#23180f"/><circle cx="228.6" cy="144.8" r="28.5" fill="#23180f"/><circle cx="210.7" cy="149.8" r="27.2" fill="#23180f"/><circle cx="231" cy="153.2" r="25.5" fill="#797574"/><circle cx="220.8" cy="168.3" r="22.7" fill="#797574"/><circle cx="209.8" cy="164" r="25" fill="#797574"/><circle cx="197" cy="157.9" r="21.6" fill="#797574"/><circle cx="195" cy="149.5" r="21.3" fill="#797574"/><circle cx="199.8" cy="142.6" r="23.1" fill="#797574"/><circle cx="201" cy="135.1" r="24.7" fill="#797574"/><circle cx="216" cy="133.4" r="21.4" fill="#797574"/><circle cx="228.6" cy="144.8" r="26.9" fill="#797574"/><circle cx="210.7" cy="149.8" r="25.6" fill="#797574"/><circle cx="226.3" cy="147.7" r="20.4" fill="#938f8d"/><circle cx="216.1" cy="162.7" r="18.2" fill="#938f8d"/><circle cx="205.2" cy="158.4" r="20" fill="#938f8d"/><circle cx="192.4" cy="152.4" r="17.3" fill="#938f8d"/><circle cx="190.4" cy="143.9" r="17" fill="#938f8d"/><circle cx="195.1" cy="137.1" r="18.5" fill="#938f8d"/><circle cx="196.4" cy="129.5" r="19.7" fill="#938f8d"/><circle cx="211.4" cy="127.8" r="17.1" fill="#938f8d"/><circle cx="224" cy="139.2" r="21.5" fill="#938f8d"/><circle cx="206" cy="144.2" r="20.5" fill="#938f8d"/><circle cx="221.7" cy="142.1" r="10.7" fill="#a29f9d"/><circle cx="211.5" cy="157.1" r="9.6" fill="#a29f9d"/><circle cx="200.5" cy="152.8" r="10.5" fill="#a29f9d"/><circle cx="187.7" cy="146.8" r="9.1" fill="#a29f9d"/><circle cx="185.7" cy="138.3" r="8.9" fill="#a29f9d"/><circle cx="190.5" cy="131.5" r="9.7" fill="#a29f9d"/><circle cx="191.7" cy="123.9" r="10.4" fill="#a29f9d"/><circle cx="206.7" cy="122.2" r="9" fill="#a29f9d"/><circle cx="219.3" cy="133.6" r="11.3" fill="#a29f9d"/><circle cx="201.4" cy="138.7" r="10.8" fill="#a29f9d"/></g><g opacity="0.858"><circle cx="233.5" cy="171.8" r="23.8" fill="#23180f"/><circle cx="229.2" cy="185.2" r="28.3" fill="#23180f"/><circle cx="210.7" cy="182.7" r="28" fill="#23180f"/><circle cx="200.3" cy="177.6" r="23.9" fill="#23180f"/><circle cx="190.8" cy="173.1" r="22.5" fill="#23180f"/><circle cx="193.9" cy="162.2" r="26.8" fill="#23180f"/><circle cx="206.7" cy="155" r="20.4" fill="#23180f"/><circle cx="226" cy="155.2" r="22.7" fill="#23180f"/><circle cx="227.7" cy="167.8" r="23.7" fill="#23180f"/><circle cx="212.9" cy="170.5" r="26" fill="#23180f"/><circle cx="233.5" cy="171.8" r="22.2" fill="#73706e"/><circle cx="229.2" cy="185.2" r="26.7" fill="#73706e"/><circle cx="210.7" cy="182.7" r="26.4" fill="#73706e"/><circle cx="200.3" cy="177.6" r="22.3" fill="#73706e"/><circle cx="190.8" cy="173.1" r="20.9" fill="#73706e"/><circle cx="193.9" cy="162.2" r="25.2" fill="#73706e"/><circle cx="206.7" cy="155" r="18.8" fill="#73706e"/><circle cx="226" cy="155.2" r="21.1" fill="#73706e"/><circle cx="227.7" cy="167.8" r="22.1" fill="#73706e"/><circle cx="212.9" cy="170.5" r="24.4" fill="#73706e"/><circle cx="229" cy="166.5" r="17.7" fill="#8c8986"/><circle cx="224.8" cy="179.8" r="21.4" fill="#8c8986"/><circle cx="206.3" cy="177.4" r="21.1" fill="#8c8986"/><circle cx="195.9" cy="172.3" r="17.9" fill="#8c8986"/><circle cx="186.4" cy="167.8" r="16.7" fill="#8c8986"/><circle cx="189.4" cy="156.8" r="20.2" fill="#8c8986"/><circle cx="202.3" cy="149.7" r="15" fill="#8c8986"/><circle cx="221.6" cy="149.9" r="16.9" fill="#8c8986"/><circle cx="223.2" cy="162.5" r="17.7" fill="#8c8986"/><circle cx="208.4" cy="165.2" r="19.5" fill="#8c8986"/><circle cx="224.6" cy="161.2" r="9.3" fill="#9c9a97"/><circle cx="220.3" cy="174.5" r="11.2" fill="#9c9a97"/><circle cx="201.9" cy="172.1" r="11.1" fill="#9c9a97"/><circle cx="191.4" cy="167" r="9.4" fill="#9c9a97"/><circle cx="182" cy="162.4" r="8.8" fill="#9c9a97"/><circle cx="185" cy="151.5" r="10.6" fill="#9c9a97"/><circle cx="197.8" cy="144.4" r="7.9" fill="#9c9a97"/><circle cx="217.1" cy="144.6" r="8.8" fill="#9c9a97"/><circle cx="218.8" cy="157.2" r="9.3" fill="#9c9a97"/><circle cx="204" cy="159.9" r="10.2" fill="#9c9a97"/></g><g><circle cx="219.2" cy="191.3" r="20.3" fill="#23180f"/><circle cx="215.9" cy="200.3" r="23.1" fill="#23180f"/><circle cx="202.7" cy="207.5" r="21.6" fill="#23180f"/><circle cx="192.7" cy="203" r="21.8" fill="#23180f"/><circle cx="185.4" cy="190.1" r="27.6" fill="#23180f"/><circle cx="190.2" cy="183.5" r="24.1" fill="#23180f"/><circle cx="200.3" cy="181.7" r="24.3" fill="#23180f"/><circle cx="212.1" cy="179.9" r="23" fill="#23180f"/><circle cx="226.2" cy="187.2" r="24.1" fill="#23180f"/><circle cx="203" cy="191.2" r="24.8" fill="#23180f"/><circle cx="219.2" cy="191.3" r="18.7" fill="#6e6b69"/><circle cx="215.9" cy="200.3" r="21.5" fill="#6e6b69"/><circle cx="202.7" cy="207.5" r="20" fill="#6e6b69"/><circle cx="192.7" cy="203" r="20.2" fill="#6e6b69"/><circle cx="185.4" cy="190.1" r="26" fill="#6e6b69"/><circle cx="190.2" cy="183.5" r="22.5" fill="#6e6b69"/><circle cx="200.3" cy="181.7" r="22.7" fill="#6e6b69"/><circle cx="212.1" cy="179.9" r="21.4" fill="#6e6b69"/><circle cx="226.2" cy="187.2" r="22.5" fill="#6e6b69"/><circle cx="203" cy="191.2" r="23.2" fill="#6e6b69"/><circle cx="215" cy="186.3" r="14.9" fill="#868280"/><circle cx="211.7" cy="195.3" r="17.2" fill="#868280"/><circle cx="198.5" cy="202.4" r="16" fill="#868280"/><circle cx="188.5" cy="198" r="16.2" fill="#868280"/><circle cx="181.1" cy="185" r="20.8" fill="#868280"/><circle cx="186" cy="178.5" r="18" fill="#868280"/><circle cx="196.1" cy="176.6" r="18.2" fill="#868280"/><circle cx="207.9" cy="174.8" r="17.1" fill="#868280"/><circle cx="222" cy="182.2" r="18" fill="#868280"/><circle cx="198.7" cy="186.1" r="18.5" fill="#868280"/><circle cx="210.8" cy="181.2" r="7.8" fill="#979492"/><circle cx="207.5" cy="190.2" r="9" fill="#979492"/><circle cx="194.3" cy="197.3" r="8.4" fill="#979492"/><circle cx="184.3" cy="192.9" r="8.5" fill="#979492"/><circle cx="176.9" cy="180" r="10.9" fill="#979492"/><circle cx="181.8" cy="173.4" r="9.5" fill="#979492"/><circle cx="191.9" cy="171.6" r="9.5" fill="#979492"/><circle cx="203.6" cy="169.8" r="9" fill="#979492"/><circle cx="217.8" cy="177.1" r="9.4" fill="#979492"/><circle cx="194.5" cy="181.1" r="9.7" fill="#979492"/></g><g><circle cx="210.1" cy="214.9" r="23.2" fill="#23180f"/><circle cx="201.1" cy="224.2" r="20.1" fill="#23180f"/><circle cx="185.9" cy="221.3" r="24.7" fill="#23180f"/><circle cx="177.3" cy="217.9" r="25" fill="#23180f"/><circle cx="172.9" cy="210.7" r="21.3" fill="#23180f"/><circle cx="178.2" cy="203" r="22.5" fill="#23180f"/><circle cx="188.8" cy="202.2" r="22.6" fill="#23180f"/><circle cx="197.5" cy="203.5" r="19.6" fill="#23180f"/><circle cx="202.3" cy="207.5" r="25.1" fill="#23180f"/><circle cx="189.2" cy="211.8" r="23.5" fill="#23180f"/><circle cx="210.1" cy="214.9" r="21.6" fill="#686663"/><circle cx="201.1" cy="224.2" r="18.5" fill="#686663"/><circle cx="185.9" cy="221.3" r="23.1" fill="#686663"/><circle cx="177.3" cy="217.9" r="23.4" fill="#686663"/><circle cx="172.9" cy="210.7" r="19.7" fill="#686663"/><circle cx="178.2" cy="203" r="20.9" fill="#686663"/><circle cx="188.8" cy="202.2" r="21" fill="#686663"/><circle cx="197.5" cy="203.5" r="18" fill="#686663"/><circle cx="202.3" cy="207.5" r="23.5" fill="#686663"/><circle cx="189.2" cy="211.8" r="21.9" fill="#686663"/><circle cx="206.1" cy="210.1" r="17.2" fill="#7f7c79"/><circle cx="197.1" cy="219.4" r="14.8" fill="#7f7c79"/><circle cx="181.9" cy="216.5" r="18.5" fill="#7f7c79"/><circle cx="173.3" cy="213.1" r="18.7" fill="#7f7c79"/><circle cx="168.9" cy="205.9" r="15.8" fill="#7f7c79"/><circle cx="174.2" cy="198.2" r="16.8" fill="#7f7c79"/><circle cx="184.8" cy="197.4" r="16.8" fill="#7f7c79"/><circle cx="193.5" cy="198.7" r="14.4" fill="#7f7c79"/><circle cx="198.3" cy="202.7" r="18.8" fill="#7f7c79"/><circle cx="185.2" cy="207" r="17.6" fill="#7f7c79"/><circle cx="202.1" cy="205.3" r="9.1" fill="#918e8c"/><circle cx="193.1" cy="214.7" r="7.8" fill="#918e8c"/><circle cx="178" cy="211.7" r="9.7" fill="#918e8c"/><circle cx="169.3" cy="208.3" r="9.8" fill="#918e8c"/><circle cx="164.9" cy="201.1" r="8.3" fill="#918e8c"/><circle cx="170.2" cy="193.4" r="8.8" fill="#918e8c"/><circle cx="180.8" cy="192.6" r="8.8" fill="#918e8c"/><circle cx="189.5" cy="193.9" r="7.6" fill="#918e8c"/><circle cx="194.3" cy="197.9" r="9.9" fill="#918e8c"/><circle cx="181.2" cy="202.3" r="9.2" fill="#918e8c"/></g><g><circle cx="202.9" cy="233.5" r="20.3" fill="#23180f"/><circle cx="196.8" cy="238.9" r="19" fill="#23180f"/><circle cx="183.9" cy="248.6" r="24.4" fill="#23180f"/><circle cx="172.8" cy="242.5" r="22.6" fill="#23180f"/><circle cx="168.8" cy="232" r="23.2" fill="#23180f"/><circle cx="177.5" cy="226.1" r="19.7" fill="#23180f"/><circle cx="181.1" cy="224.9" r="21.6" fill="#23180f"/><circle cx="192.6" cy="222.4" r="22.2" fill="#23180f"/><circle cx="199.2" cy="226.2" r="17.7" fill="#23180f"/><circle cx="186.7" cy="232.5" r="22.3" fill="#23180f"/><circle cx="202.9" cy="233.5" r="18.7" fill="#63605d"/><circle cx="196.8" cy="238.9" r="17.4" fill="#63605d"/><circle cx="183.9" cy="248.6" r="22.8" fill="#63605d"/><circle cx="172.8" cy="242.5" r="21" fill="#63605d"/><circle cx="168.8" cy="232" r="21.6" fill="#63605d"/><circle cx="177.5" cy="226.1" r="18.1" fill="#63605d"/><circle cx="181.1" cy="224.9" r="20" fill="#63605d"/><circle cx="192.6" cy="222.4" r="20.6" fill="#63605d"/><circle cx="199.2" cy="226.2" r="16.1" fill="#63605d"/><circle cx="186.7" cy="232.5" r="20.7" fill="#63605d"/><circle cx="199.1" cy="229" r="15" fill="#797572"/><circle cx="193" cy="234.4" r="13.9" fill="#797572"/><circle cx="180.2" cy="244.1" r="18.2" fill="#797572"/><circle cx="169" cy="238" r="16.8" fill="#797572"/><circle cx="165" cy="227.5" r="17.3" fill="#797572"/><circle cx="173.7" cy="221.6" r="14.5" fill="#797572"/><circle cx="177.3" cy="220.4" r="16" fill="#797572"/><circle cx="188.9" cy="217.9" r="16.5" fill="#797572"/><circle cx="195.4" cy="221.7" r="12.9" fill="#797572"/><circle cx="182.9" cy="228" r="16.6" fill="#797572"/><circle cx="195.4" cy="224.5" r="7.9" fill="#8c8886"/><circle cx="189.3" cy="229.9" r="7.3" fill="#8c8886"/><circle cx="176.4" cy="239.6" r="9.6" fill="#8c8886"/><circle cx="165.3" cy="233.5" r="8.8" fill="#8c8886"/><circle cx="161.2" cy="222.9" r="9.1" fill="#8c8886"/><circle cx="170" cy="217" r="7.6" fill="#8c8886"/><circle cx="173.6" cy="215.9" r="8.4" fill="#8c8886"/><circle cx="185.1" cy="213.3" r="8.7" fill="#8c8886"/><circle cx="191.7" cy="217.2" r="6.8" fill="#8c8886"/><circle cx="179.1" cy="223.5" r="8.7" fill="#8c8886"/></g><g><circle cx="197.8" cy="259.9" r="18.3" fill="#23180f"/><circle cx="191.2" cy="260.7" r="20" fill="#23180f"/><circle cx="180.6" cy="261.3" r="18.6" fill="#23180f"/><circle cx="169.4" cy="260.6" r="16.8" fill="#23180f"/><circle cx="162.7" cy="253.9" r="17.8" fill="#23180f"/><circle cx="168.9" cy="247.3" r="18" fill="#23180f"/><circle cx="172.8" cy="240.7" r="20" fill="#23180f"/><circle cx="185.7" cy="245.2" r="17.7" fill="#23180f"/><circle cx="190.3" cy="247.8" r="23" fill="#23180f"/><circle cx="180.4" cy="253.2" r="21.1" fill="#23180f"/><circle cx="197.8" cy="259.9" r="16.7" fill="#5e5a59"/><circle cx="191.2" cy="260.7" r="18.4" fill="#5e5a59"/><circle cx="180.6" cy="261.3" r="17" fill="#5e5a59"/><circle cx="169.4" cy="260.6" r="15.2" fill="#5e5a59"/><circle cx="162.7" cy="253.9" r="16.2" fill="#5e5a59"/><circle cx="168.9" cy="247.3" r="16.4" fill="#5e5a59"/><circle cx="172.8" cy="240.7" r="18.4" fill="#5e5a59"/><circle cx="185.7" cy="245.2" r="16.1" fill="#5e5a59"/><circle cx="190.3" cy="247.8" r="21.4" fill="#5e5a59"/><circle cx="180.4" cy="253.2" r="19.5" fill="#5e5a59"/><circle cx="194.3" cy="255.6" r="13.4" fill="#736e6c"/><circle cx="187.7" cy="256.4" r="14.7" fill="#736e6c"/><circle cx="177.1" cy="257.1" r="13.6" fill="#736e6c"/><circle cx="165.9" cy="256.3" r="12.2" fill="#736e6c"/><circle cx="159.2" cy="249.6" r="13" fill="#736e6c"/><circle cx="165.3" cy="243.1" r="13.1" fill="#736e6c"/><circle cx="169.3" cy="236.5" r="14.7" fill="#736e6c"/><circle cx="182.2" cy="241" r="12.9" fill="#736e6c"/><circle cx="186.8" cy="243.6" r="17.1" fill="#736e6c"/><circle cx="176.8" cy="248.9" r="15.6" fill="#736e6c"/><circle cx="190.7" cy="251.4" r="7" fill="#878281"/><circle cx="184.1" cy="252.2" r="7.7" fill="#878281"/><circle cx="173.6" cy="252.8" r="7.1" fill="#878281"/><circle cx="162.3" cy="252.1" r="6.4" fill="#878281"/><circle cx="155.6" cy="245.4" r="6.8" fill="#878281"/><circle cx="161.8" cy="238.8" r="6.9" fill="#878281"/><circle cx="165.7" cy="232.2" r="7.7" fill="#878281"/><circle cx="178.6" cy="236.7" r="6.8" fill="#878281"/><circle cx="183.2" cy="239.3" r="9" fill="#878281"/><circle cx="173.3" cy="244.7" r="8.2" fill="#878281"/></g><g><circle cx="175.6" cy="279.6" r="21" fill="#23180f"/><circle cx="166.1" cy="282.1" r="21.3" fill="#23180f"/><circle cx="156.3" cy="285.4" r="20" fill="#23180f"/><circle cx="152" cy="281.4" r="21.4" fill="#23180f"/><circle cx="140.1" cy="276.5" r="21.3" fill="#23180f"/><circle cx="145.9" cy="265.4" r="18.9" fill="#23180f"/><circle cx="151" cy="262.3" r="18.5" fill="#23180f"/><circle cx="165.8" cy="265.4" r="19.7" fill="#23180f"/><circle cx="170.8" cy="271.7" r="21.1" fill="#23180f"/><circle cx="158.6" cy="273.8" r="19.9" fill="#23180f"/><circle cx="175.6" cy="279.6" r="19.4" fill="#595553"/><circle cx="166.1" cy="282.1" r="19.7" fill="#595553"/><circle cx="156.3" cy="285.4" r="18.4" fill="#595553"/><circle cx="152" cy="281.4" r="19.8" fill="#595553"/><circle cx="140.1" cy="276.5" r="19.7" fill="#595553"/><circle cx="145.9" cy="265.4" r="17.3" fill="#595553"/><circle cx="151" cy="262.3" r="16.9" fill="#595553"/><circle cx="165.8" cy="265.4" r="18.1" fill="#595553"/><circle cx="170.8" cy="271.7" r="19.5" fill="#595553"/><circle cx="158.6" cy="273.8" r="18.3" fill="#595553"/><circle cx="172.3" cy="275.6" r="15.5" fill="#6c6865"/><circle cx="162.8" cy="278.2" r="15.7" fill="#6c6865"/><circle cx="153" cy="281.4" r="14.7" fill="#6c6865"/><circle cx="148.7" cy="277.5" r="15.8" fill="#6c6865"/><circle cx="136.8" cy="272.5" r="15.8" fill="#6c6865"/><circle cx="142.6" cy="261.4" r="13.9" fill="#6c6865"/><circle cx="147.6" cy="258.3" r="13.5" fill="#6c6865"/><circle cx="162.4" cy="261.5" r="14.5" fill="#6c6865"/><circle cx="167.5" cy="267.8" r="15.6" fill="#6c6865"/><circle cx="155.2" cy="269.8" r="14.6" fill="#6c6865"/><circle cx="169" cy="271.6" r="8.2" fill="#817d7b"/><circle cx="159.5" cy="274.2" r="8.3" fill="#817d7b"/><circle cx="149.7" cy="277.4" r="7.7" fill="#817d7b"/><circle cx="145.4" cy="273.5" r="8.3" fill="#817d7b"/><circle cx="133.5" cy="268.5" r="8.3" fill="#817d7b"/><circle cx="139.3" cy="257.4" r="7.3" fill="#817d7b"/><circle cx="144.3" cy="254.4" r="7.1" fill="#817d7b"/><circle cx="159.1" cy="257.5" r="7.6" fill="#817d7b"/><circle cx="164.2" cy="263.8" r="8.2" fill="#817d7b"/><circle cx="151.9" cy="265.9" r="7.7" fill="#817d7b"/></g><g><circle cx="175" cy="294.8" r="15.8" fill="#23180f"/><circle cx="170.8" cy="302.6" r="15" fill="#23180f"/><circle cx="161.9" cy="301.9" r="18.1" fill="#23180f"/><circle cx="156.9" cy="300.9" r="17" fill="#23180f"/><circle cx="154.1" cy="296.5" r="16.7" fill="#23180f"/><circle cx="150.8" cy="289.4" r="14.7" fill="#23180f"/><circle cx="156.9" cy="284.9" r="19.3" fill="#23180f"/><circle cx="166" cy="287.4" r="15.6" fill="#23180f"/><circle cx="172.9" cy="291.8" r="15.1" fill="#23180f"/><circle cx="164.1" cy="294.5" r="18.7" fill="#23180f"/><circle cx="175" cy="294.8" r="14.2" fill="#54504d"/><circle cx="170.8" cy="302.6" r="13.4" fill="#54504d"/><circle cx="161.9" cy="301.9" r="16.5" fill="#54504d"/><circle cx="156.9" cy="300.9" r="15.4" fill="#54504d"/><circle cx="154.1" cy="296.5" r="15.1" fill="#54504d"/><circle cx="150.8" cy="289.4" r="13.1" fill="#54504d"/><circle cx="156.9" cy="284.9" r="17.7" fill="#54504d"/><circle cx="166" cy="287.4" r="14" fill="#54504d"/><circle cx="172.9" cy="291.8" r="13.5" fill="#54504d"/><circle cx="164.1" cy="294.5" r="17.1" fill="#54504d"/><circle cx="171.9" cy="291" r="11.4" fill="#66615e"/><circle cx="167.7" cy="298.8" r="10.7" fill="#66615e"/><circle cx="158.8" cy="298.2" r="13.2" fill="#66615e"/><circle cx="153.8" cy="297.1" r="12.3" fill="#66615e"/><circle cx="151" cy="292.8" r="12.1" fill="#66615e"/><circle cx="147.7" cy="285.7" r="10.5" fill="#66615e"/><circle cx="153.8" cy="281.2" r="14.2" fill="#66615e"/><circle cx="162.9" cy="283.7" r="11.2" fill="#66615e"/><circle cx="169.8" cy="288.1" r="10.8" fill="#66615e"/><circle cx="161" cy="290.8" r="13.6" fill="#66615e"/><circle cx="168.8" cy="287.3" r="6" fill="#7b7775"/><circle cx="164.6" cy="295.1" r="5.6" fill="#7b7775"/><circle cx="155.7" cy="294.5" r="6.9" fill="#7b7775"/><circle cx="150.7" cy="293.4" r="6.5" fill="#7b7775"/><circle cx="147.9" cy="289" r="6.3" fill="#7b7775"/><circle cx="144.6" cy="281.9" r="5.5" fill="#7b7775"/><circle cx="150.7" cy="277.5" r="7.4" fill="#7b7775"/><circle cx="159.8" cy="280" r="5.9" fill="#7b7775"/><circle cx="166.7" cy="284.4" r="5.7" fill="#7b7775"/><circle cx="157.9" cy="287.1" r="7.2" fill="#7b7775"/></g><g><circle cx="170.9" cy="319" r="17.8" fill="#23180f"/><circle cx="166.2" cy="324.4" r="18" fill="#23180f"/><circle cx="159.7" cy="321.8" r="17" fill="#23180f"/><circle cx="151.7" cy="325" r="19.3" fill="#23180f"/><circle cx="144.9" cy="314" r="18.8" fill="#23180f"/><circle cx="150.9" cy="309.5" r="16.7" fill="#23180f"/><circle cx="158" cy="305" r="16" fill="#23180f"/><circle cx="165.2" cy="305.9" r="14.9" fill="#23180f"/><circle cx="169.4" cy="311.4" r="19.4" fill="#23180f"/><circle cx="159.3" cy="315.2" r="17.4" fill="#23180f"/><circle cx="170.9" cy="319" r="16.2" fill="#4f4b47"/><circle cx="166.2" cy="324.4" r="16.4" fill="#4f4b47"/><circle cx="159.7" cy="321.8" r="15.4" fill="#4f4b47"/><circle cx="151.7" cy="325" r="17.7" fill="#4f4b47"/><circle cx="144.9" cy="314" r="17.2" fill="#4f4b47"/><circle cx="150.9" cy="309.5" r="15.1" fill="#4f4b47"/><circle cx="158" cy="305" r="14.4" fill="#4f4b47"/><circle cx="165.2" cy="305.9" r="13.3" fill="#4f4b47"/><circle cx="169.4" cy="311.4" r="17.8" fill="#4f4b47"/><circle cx="159.3" cy="315.2" r="15.8" fill="#4f4b47"/><circle cx="168" cy="315.6" r="13" fill="#605b57"/><circle cx="163.3" cy="321" r="13.1" fill="#605b57"/><circle cx="156.9" cy="318.4" r="12.3" fill="#605b57"/><circle cx="148.8" cy="321.5" r="14.1" fill="#605b57"/><circle cx="142" cy="310.6" r="13.8" fill="#605b57"/><circle cx="148" cy="306" r="12.1" fill="#605b57"/><circle cx="155.1" cy="301.6" r="11.5" fill="#605b57"/><circle cx="162.3" cy="302.4" r="10.7" fill="#605b57"/><circle cx="166.6" cy="308" r="14.2" fill="#605b57"/><circle cx="156.5" cy="311.7" r="12.7" fill="#605b57"/><circle cx="165.2" cy="312.1" r="6.8" fill="#76726f"/><circle cx="160.4" cy="317.5" r="6.9" fill="#76726f"/><circle cx="154" cy="314.9" r="6.5" fill="#76726f"/><circle cx="146" cy="318" r="7.4" fill="#76726f"/><circle cx="139.2" cy="307.1" r="7.2" fill="#76726f"/><circle cx="145.1" cy="302.6" r="6.4" fill="#76726f"/><circle cx="152.2" cy="298.1" r="6.1" fill="#76726f"/><circle cx="159.4" cy="299" r="5.6" fill="#76726f"/><circle cx="163.7" cy="304.5" r="7.5" fill="#76726f"/><circle cx="153.6" cy="308.3" r="6.6" fill="#76726f"/></g><g><circle cx="160.4" cy="336.5" r="13.4" fill="#23180f"/><circle cx="158.4" cy="343.6" r="17" fill="#23180f"/><circle cx="149.8" cy="342.5" r="16.3" fill="#23180f"/><circle cx="141.4" cy="342" r="14.4" fill="#23180f"/><circle cx="134.7" cy="335.5" r="13.9" fill="#23180f"/><circle cx="141.9" cy="333.1" r="13.3" fill="#23180f"/><circle cx="145.2" cy="326.6" r="17.3" fill="#23180f"/><circle cx="155.7" cy="327.3" r="13.6" fill="#23180f"/><circle cx="158.2" cy="331.5" r="18" fill="#23180f"/><circle cx="149.4" cy="335.8" r="16.2" fill="#23180f"/><circle cx="160.4" cy="336.5" r="11.8" fill="#494542"/><circle cx="158.4" cy="343.6" r="15.4" fill="#494542"/><circle cx="149.8" cy="342.5" r="14.7" fill="#494542"/><circle cx="141.4" cy="342" r="12.8" fill="#494542"/><circle cx="134.7" cy="335.5" r="12.3" fill="#494542"/><circle cx="141.9" cy="333.1" r="11.7" fill="#494542"/><circle cx="145.2" cy="326.6" r="15.7" fill="#494542"/><circle cx="155.7" cy="327.3" r="12" fill="#494542"/><circle cx="158.2" cy="331.5" r="16.4" fill="#494542"/><circle cx="149.4" cy="335.8" r="14.6" fill="#494542"/><circle cx="157.7" cy="333.3" r="9.4" fill="#595451"/><circle cx="155.7" cy="340.4" r="12.3" fill="#595451"/><circle cx="147.1" cy="339.3" r="11.8" fill="#595451"/><circle cx="138.7" cy="338.8" r="10.3" fill="#595451"/><circle cx="132" cy="332.3" r="9.8" fill="#595451"/><circle cx="139.3" cy="329.9" r="9.3" fill="#595451"/><circle cx="142.6" cy="323.4" r="12.5" fill="#595451"/><circle cx="153" cy="324.1" r="9.6" fill="#595451"/><circle cx="155.5" cy="328.3" r="13.1" fill="#595451"/><circle cx="146.8" cy="332.6" r="11.7" fill="#595451"/><circle cx="155.1" cy="330.1" r="5" fill="#706c69"/><circle cx="153.1" cy="337.2" r="6.5" fill="#706c69"/><circle cx="144.4" cy="336.1" r="6.2" fill="#706c69"/><circle cx="136" cy="335.6" r="5.4" fill="#706c69"/><circle cx="129.3" cy="329.1" r="5.2" fill="#706c69"/><circle cx="136.6" cy="326.7" r="4.9" fill="#706c69"/><circle cx="139.9" cy="320.2" r="6.6" fill="#706c69"/><circle cx="150.4" cy="320.9" r="5.1" fill="#706c69"/><circle cx="152.9" cy="325.1" r="6.9" fill="#706c69"/><circle cx="144.1" cy="329.5" r="6.1" fill="#706c69"/></g><g><circle cx="160.4" cy="360.6" r="12.6" fill="#23180f"/><circle cx="152.5" cy="362.5" r="16.4" fill="#23180f"/><circle cx="146.4" cy="363.7" r="15.3" fill="#23180f"/><circle cx="140.5" cy="362.9" r="13.3" fill="#23180f"/><circle cx="136.4" cy="356" r="14.5" fill="#23180f"/><circle cx="141.8" cy="353.4" r="16.1" fill="#23180f"/><circle cx="146.2" cy="346.5" r="15.1" fill="#23180f"/><circle cx="154.3" cy="349.9" r="13.9" fill="#23180f"/><circle cx="159" cy="353.9" r="13" fill="#23180f"/><circle cx="148.9" cy="356.5" r="15" fill="#23180f"/><circle cx="160.4" cy="360.6" r="11" fill="#44403d"/><circle cx="152.5" cy="362.5" r="14.8" fill="#44403d"/><circle cx="146.4" cy="363.7" r="13.7" fill="#44403d"/><circle cx="140.5" cy="362.9" r="11.7" fill="#44403d"/><circle cx="136.4" cy="356" r="12.9" fill="#44403d"/><circle cx="141.8" cy="353.4" r="14.5" fill="#44403d"/><circle cx="146.2" cy="346.5" r="13.5" fill="#44403d"/><circle cx="154.3" cy="349.9" r="12.3" fill="#44403d"/><circle cx="159" cy="353.9" r="11.4" fill="#44403d"/><circle cx="148.9" cy="356.5" r="13.4" fill="#44403d"/><circle cx="158" cy="357.7" r="8.8" fill="#534e4a"/><circle cx="150.1" cy="359.5" r="11.8" fill="#534e4a"/><circle cx="144" cy="360.7" r="10.9" fill="#534e4a"/><circle cx="138.1" cy="359.9" r="9.3" fill="#534e4a"/><circle cx="133.9" cy="353.1" r="10.3" fill="#534e4a"/><circle cx="139.3" cy="350.5" r="11.6" fill="#534e4a"/><circle cx="143.8" cy="343.6" r="10.8" fill="#534e4a"/><circle cx="151.9" cy="347" r="9.9" fill="#534e4a"/><circle cx="156.6" cy="351" r="9.1" fill="#534e4a"/><circle cx="146.5" cy="353.6" r="10.7" fill="#534e4a"/><circle cx="155.6" cy="354.8" r="4.6" fill="#6b6763"/><circle cx="147.7" cy="356.6" r="6.2" fill="#6b6763"/><circle cx="141.5" cy="357.8" r="5.7" fill="#6b6763"/><circle cx="135.7" cy="357" r="4.9" fill="#6b6763"/><circle cx="131.5" cy="350.1" r="5.4" fill="#6b6763"/><circle cx="136.9" cy="347.6" r="6.1" fill="#6b6763"/><circle cx="141.3" cy="340.6" r="5.7" fill="#6b6763"/><circle cx="149.5" cy="344.1" r="5.2" fill="#6b6763"/><circle cx="154.2" cy="348.1" r="4.8" fill="#6b6763"/><circle cx="144" cy="350.7" r="5.6" fill="#6b6763"/></g><g><circle cx="154" cy="378.7" r="12.4" fill="#23180f"/><circle cx="145.7" cy="382.2" r="13.7" fill="#23180f"/><circle cx="140.5" cy="383.7" r="15.2" fill="#23180f"/><circle cx="137" cy="382.2" r="11.4" fill="#23180f"/><circle cx="134.8" cy="377" r="13" fill="#23180f"/><circle cx="136.7" cy="374" r="15" fill="#23180f"/><circle cx="137.9" cy="369" r="13.6" fill="#23180f"/><circle cx="145.8" cy="372" r="14.7" fill="#23180f"/><circle cx="149" cy="374.7" r="12.1" fill="#23180f"/><circle cx="142.1" cy="377.2" r="13.8" fill="#23180f"/><circle cx="154" cy="378.7" r="10.8" fill="#3f3a37"/><circle cx="145.7" cy="382.2" r="12.1" fill="#3f3a37"/><circle cx="140.5" cy="383.7" r="13.6" fill="#3f3a37"/><circle cx="137" cy="382.2" r="9.8" fill="#3f3a37"/><circle cx="134.8" cy="377" r="11.4" fill="#3f3a37"/><circle cx="136.7" cy="374" r="13.4" fill="#3f3a37"/><circle cx="137.9" cy="369" r="12" fill="#3f3a37"/><circle cx="145.8" cy="372" r="13.1" fill="#3f3a37"/><circle cx="149" cy="374.7" r="10.5" fill="#3f3a37"/><circle cx="142.1" cy="377.2" r="12.2" fill="#3f3a37"/><circle cx="151.8" cy="376" r="8.6" fill="#4d4743"/><circle cx="143.5" cy="379.5" r="9.7" fill="#4d4743"/><circle cx="138.3" cy="381" r="10.9" fill="#4d4743"/><circle cx="134.8" cy="379.5" r="7.8" fill="#4d4743"/><circle cx="132.5" cy="374.4" r="9.1" fill="#4d4743"/><circle cx="134.5" cy="371.4" r="10.7" fill="#4d4743"/><circle cx="135.7" cy="366.4" r="9.6" fill="#4d4743"/><circle cx="143.6" cy="369.4" r="10.5" fill="#4d4743"/><circle cx="146.8" cy="372.1" r="8.4" fill="#4d4743"/><circle cx="139.9" cy="374.5" r="9.7" fill="#4d4743"/><circle cx="149.6" cy="373.4" r="4.5" fill="#66615d"/><circle cx="141.3" cy="376.9" r="5.1" fill="#66615d"/><circle cx="136.1" cy="378.4" r="5.7" fill="#66615d"/><circle cx="132.6" cy="376.9" r="4.1" fill="#66615d"/><circle cx="130.3" cy="371.7" r="4.8" fill="#66615d"/><circle cx="132.3" cy="368.7" r="5.6" fill="#66615d"/><circle cx="133.5" cy="363.7" r="5" fill="#66615d"/><circle cx="141.4" cy="366.7" r="5.5" fill="#66615d"/><circle cx="144.6" cy="369.4" r="4.4" fill="#66615d"/><circle cx="137.7" cy="371.9" r="5.1" fill="#66615d"/></g><g><circle cx="142.2" cy="400.8" r="13.8" fill="#23180f"/><circle cx="135.6" cy="404.9" r="13.3" fill="#23180f"/><circle cx="130.9" cy="406.2" r="11.4" fill="#23180f"/><circle cx="123.7" cy="403.6" r="13.1" fill="#23180f"/><circle cx="123.1" cy="396.9" r="11.1" fill="#23180f"/><circle cx="125" cy="394.8" r="10" fill="#23180f"/><circle cx="129" cy="390.4" r="13.1" fill="#23180f"/><circle cx="133.1" cy="392.2" r="12.5" fill="#23180f"/><circle cx="139.9" cy="396.6" r="10.5" fill="#23180f"/><circle cx="131.6" cy="397.8" r="12.5" fill="#23180f"/><circle cx="142.2" cy="400.8" r="12.2" fill="#393432"/><circle cx="135.6" cy="404.9" r="11.7" fill="#393432"/><circle cx="130.9" cy="406.2" r="9.8" fill="#393432"/><circle cx="123.7" cy="403.6" r="11.5" fill="#393432"/><circle cx="123.1" cy="396.9" r="9.5" fill="#393432"/><circle cx="125" cy="394.8" r="8.4" fill="#393432"/><circle cx="129" cy="390.4" r="11.5" fill="#393432"/><circle cx="133.1" cy="392.2" r="10.9" fill="#393432"/><circle cx="139.9" cy="396.6" r="8.9" fill="#393432"/><circle cx="131.6" cy="397.8" r="10.9" fill="#393432"/><circle cx="140.2" cy="398.4" r="9.8" fill="#46403d"/><circle cx="133.6" cy="402.5" r="9.3" fill="#46403d"/><circle cx="129" cy="403.8" r="7.9" fill="#46403d"/><circle cx="121.7" cy="401.2" r="9.2" fill="#46403d"/><circle cx="121.1" cy="394.5" r="7.6" fill="#46403d"/><circle cx="123" cy="392.4" r="6.7" fill="#46403d"/><circle cx="127" cy="388" r="9.2" fill="#46403d"/><circle cx="131.1" cy="389.8" r="8.7" fill="#46403d"/><circle cx="137.9" cy="394.2" r="7.1" fill="#46403d"/><circle cx="129.6" cy="395.4" r="8.8" fill="#46403d"/><circle cx="138.2" cy="396" r="5.1" fill="#605b58"/><circle cx="131.6" cy="400.1" r="4.9" fill="#605b58"/><circle cx="127" cy="401.4" r="4.1" fill="#605b58"/><circle cx="119.7" cy="398.8" r="4.8" fill="#605b58"/><circle cx="119.1" cy="392.1" r="4" fill="#605b58"/><circle cx="121" cy="390" r="3.5" fill="#605b58"/><circle cx="125" cy="385.6" r="4.8" fill="#605b58"/><circle cx="129.1" cy="387.4" r="4.6" fill="#605b58"/><circle cx="135.9" cy="391.8" r="3.7" fill="#605b58"/><circle cx="127.6" cy="393.1" r="4.6" fill="#605b58"/></g><g><circle cx="141.3" cy="420.9" r="11.5" fill="#23180f"/><circle cx="139.1" cy="421.7" r="10.1" fill="#23180f"/><circle cx="136.1" cy="424.6" r="11" fill="#23180f"/><circle cx="130.5" cy="422.6" r="11.8" fill="#23180f"/><circle cx="129.4" cy="419.6" r="10.5" fill="#23180f"/><circle cx="129.7" cy="415.1" r="11.2" fill="#23180f"/><circle cx="132.9" cy="413.9" r="10.3" fill="#23180f"/><circle cx="138.9" cy="411.4" r="10.9" fill="#23180f"/><circle cx="140.6" cy="417.2" r="10.5" fill="#23180f"/><circle cx="135.1" cy="418.5" r="11.3" fill="#23180f"/><circle cx="141.3" cy="420.9" r="9.9" fill="#34302c"/><circle cx="139.1" cy="421.7" r="8.5" fill="#34302c"/><circle cx="136.1" cy="424.6" r="9.4" fill="#34302c"/><circle cx="130.5" cy="422.6" r="10.2" fill="#34302c"/><circle cx="129.4" cy="419.6" r="8.9" fill="#34302c"/><circle cx="129.7" cy="415.1" r="9.6" fill="#34302c"/><circle cx="132.9" cy="413.9" r="8.7" fill="#34302c"/><circle cx="138.9" cy="411.4" r="9.3" fill="#34302c"/><circle cx="140.6" cy="417.2" r="8.9" fill="#34302c"/><circle cx="135.1" cy="418.5" r="9.7" fill="#34302c"/><circle cx="139.5" cy="418.8" r="7.9" fill="#403a36"/><circle cx="137.3" cy="419.6" r="6.8" fill="#403a36"/><circle cx="134.4" cy="422.4" r="7.5" fill="#403a36"/><circle cx="128.8" cy="420.4" r="8.1" fill="#403a36"/><circle cx="127.6" cy="417.5" r="7.1" fill="#403a36"/><circle cx="128" cy="413" r="7.7" fill="#403a36"/><circle cx="131.2" cy="411.8" r="6.9" fill="#403a36"/><circle cx="137.1" cy="409.3" r="7.4" fill="#403a36"/><circle cx="138.8" cy="415.1" r="7.1" fill="#403a36"/><circle cx="133.3" cy="416.4" r="7.8" fill="#403a36"/><circle cx="137.8" cy="416.6" r="4.1" fill="#5b5652"/><circle cx="135.6" cy="417.5" r="3.6" fill="#5b5652"/><circle cx="132.6" cy="420.3" r="4" fill="#5b5652"/><circle cx="127" cy="418.3" r="4.3" fill="#5b5652"/><circle cx="125.8" cy="415.3" r="3.7" fill="#5b5652"/><circle cx="126.2" cy="410.9" r="4" fill="#5b5652"/><circle cx="129.4" cy="409.7" r="3.6" fill="#5b5652"/><circle cx="135.3" cy="407.1" r="3.9" fill="#5b5652"/><circle cx="137.1" cy="413" r="3.7" fill="#5b5652"/><circle cx="131.5" cy="414.3" r="4.1" fill="#5b5652"/></g><circle cx="140.6" cy="359.3" r="1.8" fill="#ffb347" opacity="0.43799999999999994"/><circle cx="131.5" cy="335.1" r="1.8" fill="#ffb347" opacity="0.265"/><circle cx="133.3" cy="416" r="1.8" fill="#ffb347" opacity="0.843"/><circle cx="135.4" cy="391.8" r="1.8" fill="#ffb347" opacity="0.67"/><circle cx="139.2" cy="367.7" r="1.8" fill="#ffb347" opacity="0.498"/></g>
</svg>
