<svg xmlns="http://www.w3.org/2000/svg" width="320" height="320" viewBox="0 0 320 320">
  <!-- fx-earth-toss-1: a spadeful of dark earth thrown back over the shoulder, breaking into clods and crumbs, frame 1 of 3
       Claude-drawn stand-in (temporary: replace with Astra's fx-earth-toss-1). Generated by scripts/claude-art/; do not hand-edit. -->
  <defs><clipPath id="fx-earth-toss-1-c-0"><path d="M 1.41 10.79 C 0.66 11.43 -0.44 11.69 -1.53 11.49 C -2.63 11.29 -3.76 10.61 -4.57 9.68 C -5.37 8.75 -5.88 7.53 -5.92 6.42 C -5.96 5.3 -5.54 4.25 -4.8 3.61 C -4.05 2.97 -2.95 2.7 -1.86 2.91 C -0.76 3.11 0.37 3.79 1.17 4.72 C 1.98 5.65 2.48 6.87 2.53 7.98 C 2.57 9.09 2.15 10.14 1.41 10.79 Z"/></clipPath><clipPath id="fx-earth-toss-1-c-1"><path d="M 0.62 6.01 C 0.54 6.72 0.09 7.41 -0.6 7.84 C -1.28 8.28 -2.23 8.48 -3.12 8.38 C -4.01 8.28 -4.88 7.88 -5.46 7.31 C -6.03 6.73 -6.33 5.97 -6.25 5.25 C -6.17 4.54 -5.71 3.85 -5.03 3.42 C -4.34 2.99 -3.4 2.78 -2.51 2.88 C -1.62 2.98 -0.74 3.38 -0.17 3.95 C 0.4 4.53 0.7 5.3 0.62 6.01 Z"/></clipPath><clipPath id="fx-earth-toss-1-c-2"><path d="M -1.51 9.98 C -2.24 10.63 -3.32 10.91 -4.41 10.73 C -5.5 10.55 -6.64 9.9 -7.46 9 C -8.28 8.09 -8.8 6.89 -8.87 5.78 C -8.93 4.68 -8.54 3.63 -7.81 2.98 C -7.08 2.32 -6 2.04 -4.91 2.22 C -3.82 2.4 -2.68 3.05 -1.86 3.96 C -1.04 4.86 -0.52 6.06 -0.45 7.17 C -0.39 8.27 -0.78 9.32 -1.51 9.98 Z"/></clipPath><clipPath id="fx-earth-toss-1-c-3"><path d="M 1.1 10.19 C 0.54 10.91 -0.41 11.35 -1.44 11.37 C -2.47 11.38 -3.63 10.97 -4.53 10.27 C -5.44 9.58 -6.12 8.56 -6.36 7.55 C -6.6 6.55 -6.41 5.52 -5.85 4.8 C -5.3 4.07 -4.34 3.63 -3.31 3.62 C -2.28 3.6 -1.12 4.01 -0.22 4.71 C 0.68 5.41 1.37 6.43 1.61 7.43 C 1.85 8.44 1.66 9.47 1.1 10.19 Z"/></clipPath></defs>
  <g filter="url(#grain)" stroke-linejoin="round" stroke-linecap="round"><g transform="translate(240 240) scale(4.53 -4.53)"><g clip-path="url(#fx-earth-toss-1-c-0)"><path d="M 1.41 10.79 C 0.66 11.43 -0.44 11.69 -1.53 11.49 C -2.63 11.29 -3.76 10.61 -4.57 9.68 C -5.37 8.75 -5.88 7.53 -5.92 6.42 C -5.96 5.3 -5.54 4.25 -4.8 3.61 C -4.05 2.97 -2.95 2.7 -1.86 2.91 C -0.76 3.11 0.37 3.79 1.17 4.72 C 1.98 5.65 2.48 6.87 2.53 7.98 C 2.57 9.09 2.15 10.14 1.41 10.79 Z" fill="#563a22"/><path d="M 1.41 10.79 C 0.66 11.43 -0.44 11.69 -1.53 11.49 C -2.63 11.29 -3.76 10.61 -4.57 9.68 C -5.37 8.75 -5.88 7.53 -5.92 6.42 C -5.96 5.3 -5.54 4.25 -4.8 3.61 C -4.05 2.97 -2.95 2.7 -1.86 2.91 C -0.76 3.11 0.37 3.79 1.17 4.72 C 1.98 5.65 2.48 6.87 2.53 7.98 C 2.57 9.09 2.15 10.14 1.41 10.79 Z" fill="#6e4a2b" transform="translate(-0.66 1.2)"/></g><path d="M 1.41 10.79 C 0.66 11.43 -0.44 11.69 -1.53 11.49 C -2.63 11.29 -3.76 10.61 -4.57 9.68 C -5.37 8.75 -5.88 7.53 -5.92 6.42 C -5.96 5.3 -5.54 4.25 -4.8 3.61 C -4.05 2.97 -2.95 2.7 -1.86 2.91 C -0.76 3.11 0.37 3.79 1.17 4.72 C 1.98 5.65 2.48 6.87 2.53 7.98 C 2.57 9.09 2.15 10.14 1.41 10.79 Z" fill="none" stroke="#22150c" stroke-width="0.49" stroke-linejoin="round"/><g clip-path="url(#fx-earth-toss-1-c-1)"><path d="M 0.62 6.01 C 0.54 6.72 0.09 7.41 -0.6 7.84 C -1.28 8.28 -2.23 8.48 -3.12 8.38 C -4.01 8.28 -4.88 7.88 -5.46 7.31 C -6.03 6.73 -6.33 5.97 -6.25 5.25 C -6.17 4.54 -5.71 3.85 -5.03 3.42 C -4.34 2.99 -3.4 2.78 -2.51 2.88 C -1.62 2.98 -0.74 3.38 -0.17 3.95 C 0.4 4.53 0.7 5.3 0.62 6.01 Z" fill="#462f1b"/><path d="M 0.62 6.01 C 0.54 6.72 0.09 7.41 -0.6 7.84 C -1.28 8.28 -2.23 8.48 -3.12 8.38 C -4.01 8.28 -4.88 7.88 -5.46 7.31 C -6.03 6.73 -6.33 5.97 -6.25 5.25 C -6.17 4.54 -5.71 3.85 -5.03 3.42 C -4.34 2.99 -3.4 2.78 -2.51 2.88 C -1.62 2.98 -0.74 3.38 -0.17 3.95 C 0.4 4.53 0.7 5.3 0.62 6.01 Z" fill="#5a3c22" transform="translate(-0.66 1.2)"/></g><path d="M 0.62 6.01 C 0.54 6.72 0.09 7.41 -0.6 7.84 C -1.28 8.28 -2.23 8.48 -3.12 8.38 C -4.01 8.28 -4.88 7.88 -5.46 7.31 C -6.03 6.73 -6.33 5.97 -6.25 5.25 C -6.17 4.54 -5.71 3.85 -5.03 3.42 C -4.34 2.99 -3.4 2.78 -2.51 2.88 C -1.62 2.98 -0.74 3.38 -0.17 3.95 C 0.4 4.53 0.7 5.3 0.62 6.01 Z" fill="none" stroke="#22150c" stroke-width="0.49" stroke-linejoin="round"/><g clip-path="url(#fx-earth-toss-1-c-2)"><path d="M -1.51 9.98 C -2.24 10.63 -3.32 10.91 -4.41 10.73 C -5.5 10.55 -6.64 9.9 -7.46 9 C -8.28 8.09 -8.8 6.89 -8.87 5.78 C -8.93 4.68 -8.54 3.63 -7.81 2.98 C -7.08 2.32 -6 2.04 -4.91 2.22 C -3.82 2.4 -2.68 3.05 -1.86 3.96 C -1.04 4.86 -0.52 6.06 -0.45 7.17 C -0.39 8.27 -0.78 9.32 -1.51 9.98 Z" fill="#563a22"/><path d="M -1.51 9.98 C -2.24 10.63 -3.32 10.91 -4.41 10.73 C -5.5 10.55 -6.64 9.9 -7.46 9 C -8.28 8.09 -8.8 6.89 -8.87 5.78 C -8.93 4.68 -8.54 3.63 -7.81 2.98 C -7.08 2.32 -6 2.04 -4.91 2.22 C -3.82 2.4 -2.68 3.05 -1.86 3.96 C -1.04 4.86 -0.52 6.06 -0.45 7.17 C -0.39 8.27 -0.78 9.32 -1.51 9.98 Z" fill="#6e4a2b" transform="translate(-0.66 1.2)"/></g><path d="M -1.51 9.98 C -2.24 10.63 -3.32 10.91 -4.41 10.73 C -5.5 10.55 -6.64 9.9 -7.46 9 C -8.28 8.09 -8.8 6.89 -8.87 5.78 C -8.93 4.68 -8.54 3.63 -7.81 2.98 C -7.08 2.32 -6 2.04 -4.91 2.22 C -3.82 2.4 -2.68 3.05 -1.86 3.96 C -1.04 4.86 -0.52 6.06 -0.45 7.17 C -0.39 8.27 -0.78 9.32 -1.51 9.98 Z" fill="none" stroke="#22150c" stroke-width="0.49" stroke-linejoin="round"/><g clip-path="url(#fx-earth-toss-1-c-3)"><path d="M 1.1 10.19 C 0.54 10.91 -0.41 11.35 -1.44 11.37 C -2.47 11.38 -3.63 10.97 -4.53 10.27 C -5.44 9.58 -6.12 8.56 -6.36 7.55 C -6.6 6.55 -6.41 5.52 -5.85 4.8 C -5.3 4.07 -4.34 3.63 -3.31 3.62 C -2.28 3.6 -1.12 4.01 -0.22 4.71 C 0.68 5.41 1.37 6.43 1.61 7.43 C 1.85 8.44 1.66 9.47 1.1 10.19 Z" fill="#462f1b"/><path d="M 1.1 10.19 C 0.54 10.91 -0.41 11.35 -1.44 11.37 C -2.47 11.38 -3.63 10.97 -4.53 10.27 C -5.44 9.58 -6.12 8.56 -6.36 7.55 C -6.6 6.55 -6.41 5.52 -5.85 4.8 C -5.3 4.07 -4.34 3.63 -3.31 3.62 C -2.28 3.6 -1.12 4.01 -0.22 4.71 C 0.68 5.41 1.37 6.43 1.61 7.43 C 1.85 8.44 1.66 9.47 1.1 10.19 Z" fill="#5a3c22" transform="translate(-0.66 1.2)"/></g><path d="M 1.1 10.19 C 0.54 10.91 -0.41 11.35 -1.44 11.37 C -2.47 11.38 -3.63 10.97 -4.53 10.27 C -5.44 9.58 -6.12 8.56 -6.36 7.55 C -6.6 6.55 -6.41 5.52 -5.85 4.8 C -5.3 4.07 -4.34 3.63 -3.31 3.62 C -2.28 3.6 -1.12 4.01 -0.22 4.71 C 0.68 5.41 1.37 6.43 1.61 7.43 C 1.85 8.44 1.66 9.47 1.1 10.19 Z" fill="none" stroke="#22150c" stroke-width="0.49" stroke-linejoin="round"/><path d="M -2.14 7.29 C -2.49 7.61 -3.01 7.76 -3.54 7.68 C -4.07 7.61 -4.63 7.31 -5.03 6.88 C -5.44 6.45 -5.71 5.87 -5.75 5.34 C -5.79 4.8 -5.61 4.29 -5.27 3.97 C -4.92 3.64 -4.4 3.5 -3.87 3.57 C -3.34 3.65 -2.78 3.95 -2.38 4.38 C -1.97 4.81 -1.71 5.38 -1.66 5.92 C -1.62 6.45 -1.8 6.96 -2.14 7.29 Z" fill="#6e4a2b"/><path d="M -2.33 9.28 C -2.57 9.64 -3 9.87 -3.48 9.92 C -3.97 9.96 -4.52 9.8 -4.97 9.51 C -5.41 9.21 -5.76 8.76 -5.91 8.3 C -6.06 7.83 -6 7.35 -5.76 6.99 C -5.53 6.63 -5.1 6.4 -4.61 6.35 C -4.13 6.31 -3.58 6.47 -3.13 6.76 C -2.69 7.06 -2.33 7.51 -2.19 7.97 C -2.04 8.44 -2.1 8.92 -2.33 9.28 Z" fill="#5a3c22"/><path d="M -2.49 7.79 C -2.93 8.05 -3.52 8.09 -4.07 7.89 C -4.62 7.69 -5.14 7.24 -5.48 6.69 C -5.81 6.14 -5.96 5.46 -5.88 4.88 C -5.81 4.31 -5.5 3.8 -5.06 3.54 C -4.62 3.27 -4.03 3.23 -3.48 3.43 C -2.93 3.63 -2.41 4.08 -2.07 4.64 C -1.74 5.19 -1.59 5.86 -1.67 6.44 C -1.74 7.02 -2.05 7.52 -2.49 7.79 Z" fill="#6e4a2b"/><path d="M -0.55 8.32 C -0.96 8.6 -1.53 8.68 -2.08 8.52 C -2.62 8.36 -3.16 7.96 -3.52 7.44 C -3.88 6.93 -4.07 6.28 -4.03 5.72 C -4 5.15 -3.73 4.64 -3.32 4.35 C -2.91 4.07 -2.34 3.99 -1.79 4.15 C -1.25 4.31 -0.71 4.71 -0.35 5.23 C 0.01 5.74 0.2 6.39 0.17 6.95 C 0.13 7.52 -0.14 8.03 -0.55 8.32 Z" fill="#5a3c22"/><path d="M -0.49 9.62 C -0.86 9.94 -1.4 10.07 -1.93 9.96 C -2.47 9.86 -3.02 9.53 -3.42 9.07 C -3.81 8.62 -4.05 8.02 -4.07 7.47 C -4.09 6.93 -3.89 6.42 -3.52 6.1 C -3.15 5.79 -2.62 5.66 -2.08 5.76 C -1.54 5.86 -0.99 6.2 -0.6 6.65 C -0.21 7.11 0.04 7.71 0.06 8.25 C 0.08 8.8 -0.13 9.31 -0.49 9.62 Z" fill="#6e4a2b"/></g></g>
</svg>
