<svg xmlns="http://www.w3.org/2000/svg" width="400" height="400" viewBox="0 0 400 400">
  <!-- blue-guard-1: blue guard, frame 1 of 2: standing sentry side on, the rifle sloped on the shoulder
       Claude-drawn stand-in (temporary: replace with Astra's blue-guard-1). Generated by scripts/claude-art/; do not hand-edit. -->
  <defs><clipPath id="blue-guard-1-c-0"><path d="M -11.5 69.2 L 0.5 68.78 A 2.94 2.94 0 0 0 0.5 62.9 L -11.5 62.48 A 3.36 3.36 0 0 0 -11.5 69.2 Z"/></clipPath><clipPath id="blue-guard-1-c-1"><path d="M -4.12 54.27 L -13.87 62.89 A 3.78 3.78 0 0 0 -9.14 68.79 L 1.4 61.15 A 4.41 4.41 0 0 0 -4.12 54.27 Z"/></clipPath><clipPath id="blue-guard-1-c-2"><path d="M 3.6 65.84 C 3.6 66.59 3.26 67.37 2.69 67.9 C 2.12 68.44 1.3 68.76 0.5 68.76 C -0.31 68.76 -1.13 68.44 -1.7 67.9 C -2.27 67.37 -2.61 66.59 -2.61 65.84 C -2.61 65.08 -2.27 64.31 -1.7 63.77 C -1.13 63.24 -0.31 62.92 0.5 62.92 C 1.3 62.92 2.12 63.24 2.69 63.77 C 3.26 64.31 3.6 65.08 3.6 65.84 Z"/></clipPath><clipPath id="blue-guard-1-c-3"><path d="M 2.01 20.49 L 0.46 3.05 A 3.44 3.44 0 0 0 -6.41 3.44 L -5.95 20.94 A 3.99 3.99 0 0 0 2.01 20.49 Z"/></clipPath><clipPath id="blue-guard-1-c-4"><path d="M 3.46 38.66 L 2.23 20.67 A 4.2 4.2 0 0 0 -6.17 20.76 L -7.04 38.77 A 5.25 5.25 0 0 0 3.46 38.66 Z"/></clipPath><clipPath id="blue-guard-1-c-5"><path d="M -6.97 3.74 L -6.97 8.74 A 3.99 3.99 0 0 0 1.01 8.74 L 1.01 3.74 A 3.99 3.99 0 0 0 -6.97 3.74 Z"/></clipPath><clipPath id="blue-guard-1-c-6"><path d="M -5.68 0.64 C -5.99 1.31 -6.36 5.25 -5.68 5.74 C -4.99 6.23 -1.09 5.29 0.17 4.84 C 1.44 4.4 4.65 2.44 5.17 1.93 C 5.7 1.41 5.63 0.65 4.67 0.43 C 3.72 0.21 -1.77 0.02 -2.98 0.04 C -4.18 0.07 -5.36 -0.02 -5.68 0.64 Z"/></clipPath><clipPath id="blue-guard-1-c-7"><path d="M 6.05 21.14 L 6.89 3.66 A 3.44 3.44 0 0 0 0.02 3.11 L -1.9 20.52 A 3.99 3.99 0 0 0 6.05 21.14 Z"/></clipPath><clipPath id="blue-guard-1-c-8"><path d="M 5.02 39.35 L 6.24 21.36 A 4.2 4.2 0 0 0 -2.09 20.3 L -5.4 38.02 A 5.25 5.25 0 0 0 5.02 39.35 Z"/></clipPath><clipPath id="blue-guard-1-c-9"><path d="M -0.54 3.88 L -0.54 8.88 A 3.99 3.99 0 0 0 7.44 8.88 L 7.44 3.88 A 3.99 3.99 0 0 0 -0.54 3.88 Z"/></clipPath><clipPath id="blue-guard-1-c-10"><path d="M 0.75 0.78 C 0.44 1.45 0.07 5.39 0.75 5.88 C 1.44 6.37 5.34 5.43 6.6 4.98 C 7.87 4.53 11.08 2.54 11.6 2.02 C 12.13 1.5 12.05 0.73 11.1 0.52 C 10.15 0.31 4.66 0.15 3.45 0.18 C 2.25 0.21 1.07 0.12 0.75 0.78 Z"/></clipPath><clipPath id="blue-guard-1-c-11"><path d="M -10.01 37.86 C -11.24 39.2 -10.37 44.32 -10.27 46.56 C -10.18 48.81 -9.66 52.87 -9.3 54.69 C -8.94 56.5 -8.7 59.21 -7.54 60.16 C -6.38 61.11 -2.44 61.83 -0.59 61.8 C 1.26 61.76 5.06 60.96 6.3 59.92 C 7.54 58.87 8.43 55.76 8.69 53.93 C 8.95 52.11 8.39 48.42 8.28 46.24 C 8.17 44.05 9.09 38.84 7.85 37.55 C 6.61 36.25 1.35 36.46 -1.03 36.5 C -3.41 36.54 -8.78 36.52 -10.01 37.86 Z"/></clipPath><clipPath id="blue-guard-1-c-12"><path d="M 2.94 92.14 C 1.15 93.06 -10.13 89.86 -12.89 87.47 C -15.66 85.07 -16.57 78.29 -16.56 75.23 C -16.55 72.17 -14.46 66.63 -12.82 65.86 C -11.18 65.09 -6.73 67.64 -4.95 69.77 C -3.17 71.91 -1.37 77.78 -0.25 80.94 C 0.86 84.11 4.73 91.22 2.94 92.14 Z"/></clipPath><clipPath id="blue-guard-1-c-13"><path d="M -6.61 59.63 L -6.98 65.14 A 5.7 5.7 0 0 0 4.42 65.28 L 4.19 59.77 A 5.4 5.4 0 0 0 -6.61 59.63 Z"/></clipPath><clipPath id="blue-guard-1-c-14"><path d="M -13.44 81.92 C -12.32 85.21 -7.22 90.1 -3.83 91.06 C -0.44 92.01 6.46 90.02 9.17 88.28 C 11.89 86.54 13.41 81.71 14.27 79.49 C 15.13 77.27 15.05 74.78 14.92 73.48 C 14.78 72.17 13.75 71.79 13.37 70.8 C 12.99 69.82 13.37 68.23 12.4 66.92 C 11.43 65.61 9.09 62.77 6.92 62.07 C 4.74 61.36 0.64 61.16 -2.08 62.22 C -4.81 63.28 -9.56 66.18 -11.26 69.13 C -12.97 72.09 -14.55 78.64 -13.44 81.92 Z"/></clipPath><clipPath id="blue-guard-1-c-15"><path d="M -15.58 79.71 C -16.07 81.38 -15.3 87.85 -14.36 89.44 C -13.42 91.03 -8.77 93.1 -7.54 93.37 C -6.31 93.65 -4.78 91.61 -3.82 91.81 C -2.85 92 -0.31 95.05 0.74 95.03 C 1.79 95.01 4.02 91.95 5.18 91.65 C 6.35 91.35 10.21 92.88 10.75 92.45 C 11.28 92.02 9.33 88.78 9.77 87.97 C 10.21 87.16 14.73 85.94 14.53 85.49 C 14.33 85.03 9.24 84.01 8.05 84.1 C 6.86 84.19 5.22 86.42 4.34 86.26 C 3.46 86.1 1.76 83.34 0.53 82.73 C -0.71 82.12 -5.01 81.94 -6.25 81.05 C -7.49 80.16 -9.02 75.27 -10.11 75.11 C -11.2 74.96 -15.08 78.04 -15.58 79.71 Z"/></clipPath><clipPath id="blue-guard-1-c-16"><path d="M 4.19 41.83 L 0.99 59.71 L 0.02 63.59 L 2.23 64.26 L 3.96 60.6 L 9.55 43.45 Z"/></clipPath><clipPath id="blue-guard-1-c-17"><path d="M 15.47 53.84 L 8.39 44.14 A 2.94 2.94 0 0 0 3.52 47.44 L 9.91 57.61 A 3.36 3.36 0 0 0 15.47 53.84 Z"/></clipPath><clipPath id="blue-guard-1-c-18"><path d="M 0.51 62.05 L 13.26 59.46 A 3.78 3.78 0 0 0 12.12 51.99 L -0.83 53.33 A 4.41 4.41 0 0 0 0.51 62.05 Z"/></clipPath><clipPath id="blue-guard-1-c-19"><path d="M 9.06 45.79 C 9.06 46.55 8.72 47.32 8.15 47.86 C 7.58 48.39 6.76 48.71 5.95 48.71 C 5.15 48.71 4.33 48.39 3.76 47.86 C 3.19 47.32 2.85 46.55 2.85 45.79 C 2.85 45.03 3.19 44.26 3.76 43.73 C 4.33 43.19 5.15 42.87 5.95 42.87 C 6.76 42.87 7.58 43.19 8.15 43.73 C 8.72 44.26 9.06 45.03 9.06 45.79 Z"/></clipPath></defs>
  <g filter="url(#grain)" stroke-linejoin="round" stroke-linecap="round"><g transform="translate(200 372) scale(2.83 -2.83)"><g clip-path="url(#blue-guard-1-c-0)"><path d="M -11.5 69.2 L 0.5 68.78 A 2.94 2.94 0 0 0 0.5 62.9 L -11.5 62.48 A 3.36 3.36 0 0 0 -11.5 69.2 Z" fill="#90633e"/><path d="M -11.5 69.2 L 0.5 68.78 A 2.94 2.94 0 0 0 0.5 62.9 L -11.5 62.48 A 3.36 3.36 0 0 0 -11.5 69.2 Z" fill="#b87f50" transform="translate(-0.33 0.6)"/></g><path d="M -11.5 69.2 L 0.5 68.78 A 2.94 2.94 0 0 0 0.5 62.9 L -11.5 62.48 A 3.36 3.36 0 0 0 -11.5 69.2 Z" fill="none" stroke="#22150c" stroke-width="1.48" stroke-linejoin="round"/><g clip-path="url(#blue-guard-1-c-1)"><path d="M -4.12 54.27 L -13.87 62.89 A 3.78 3.78 0 0 0 -9.14 68.79 L 1.4 61.15 A 4.41 4.41 0 0 0 -4.12 54.27 Z" fill="#2f4457"/><path d="M -4.12 54.27 L -13.87 62.89 A 3.78 3.78 0 0 0 -9.14 68.79 L 1.4 61.15 A 4.41 4.41 0 0 0 -4.12 54.27 Z" fill="#3c576f" transform="translate(-0.38 0.7)"/></g><path d="M -4.12 54.27 L -13.87 62.89 A 3.78 3.78 0 0 0 -9.14 68.79 L 1.4 61.15 A 4.41 4.41 0 0 0 -4.12 54.27 Z" fill="none" stroke="#22150c" stroke-width="1.48" stroke-linejoin="round"/><path d="M -14.78 68.47 C -15.29 67.83 -15.45 66.89 -15.21 65.96 C -14.97 65.03 -14.32 64.06 -13.47 63.38 C -12.62 62.7 -11.54 62.28 -10.58 62.24 C -9.62 62.21 -8.74 62.58 -8.23 63.21 C -7.72 63.85 -7.55 64.79 -7.79 65.72 C -8.03 66.65 -8.68 67.62 -9.53 68.3 C -10.38 68.98 -11.47 69.4 -12.43 69.44 C -13.39 69.47 -14.27 69.1 -14.78 68.47 Z" fill="#3c576f"/><path d="M -14.78 68.47 C -15.29 67.83 -15.45 66.89 -15.21 65.96 C -14.97 65.03 -14.32 64.06 -13.47 63.38 C -12.62 62.7 -11.54 62.28 -10.58 62.24 C -9.62 62.21 -8.74 62.58 -8.23 63.21 C -7.72 63.85 -7.55 64.79 -7.79 65.72 C -8.03 66.65 -8.68 67.62 -9.53 68.3 C -10.38 68.98 -11.47 69.4 -12.43 69.44 C -13.39 69.47 -14.27 69.1 -14.78 68.47 Z" fill="none" stroke="#22150c" stroke-width="1.06" stroke-linejoin="round"/><g clip-path="url(#blue-guard-1-c-2)"><path d="M 3.6 65.84 C 3.6 66.59 3.26 67.37 2.69 67.9 C 2.12 68.44 1.3 68.76 0.5 68.76 C -0.31 68.76 -1.13 68.44 -1.7 67.9 C -2.27 67.37 -2.61 66.59 -2.61 65.84 C -2.61 65.08 -2.27 64.31 -1.7 63.77 C -1.13 63.24 -0.31 62.92 0.5 62.92 C 1.3 62.92 2.12 63.24 2.69 63.77 C 3.26 64.31 3.6 65.08 3.6 65.84 Z" fill="#90633e"/><path d="M 3.6 65.84 C 3.6 66.59 3.26 67.37 2.69 67.9 C 2.12 68.44 1.3 68.76 0.5 68.76 C -0.31 68.76 -1.13 68.44 -1.7 67.9 C -2.27 67.37 -2.61 66.59 -2.61 65.84 C -2.61 65.08 -2.27 64.31 -1.7 63.77 C -1.13 63.24 -0.31 62.92 0.5 62.92 C 1.3 62.92 2.12 63.24 2.69 63.77 C 3.26 64.31 3.6 65.08 3.6 65.84 Z" fill="#b87f50" transform="translate(-0.22 0.4)"/></g><path d="M 3.6 65.84 C 3.6 66.59 3.26 67.37 2.69 67.9 C 2.12 68.44 1.3 68.76 0.5 68.76 C -0.31 68.76 -1.13 68.44 -1.7 67.9 C -2.27 67.37 -2.61 66.59 -2.61 65.84 C -2.61 65.08 -2.27 64.31 -1.7 63.77 C -1.13 63.24 -0.31 62.92 0.5 62.92 C 1.3 62.92 2.12 63.24 2.69 63.77 C 3.26 64.31 3.6 65.08 3.6 65.84 Z" fill="none" stroke="#22150c" stroke-width="1.48" stroke-linejoin="round"/><g clip-path="url(#blue-guard-1-c-3)"><path d="M 2.01 20.49 L 0.46 3.05 A 3.44 3.44 0 0 0 -6.41 3.44 L -5.95 20.94 A 3.99 3.99 0 0 0 2.01 20.49 Z" fill="#90633e"/><path d="M 2.01 20.49 L 0.46 3.05 A 3.44 3.44 0 0 0 -6.41 3.44 L -5.95 20.94 A 3.99 3.99 0 0 0 2.01 20.49 Z" fill="#b87f50" transform="translate(-0.38 0.7)"/></g><path d="M 2.01 20.49 L 0.46 3.05 A 3.44 3.44 0 0 0 -6.41 3.44 L -5.95 20.94 A 3.99 3.99 0 0 0 2.01 20.49 Z" fill="none" stroke="#22150c" stroke-width="1.48" stroke-linejoin="round"/><g clip-path="url(#blue-guard-1-c-4)"><path d="M 3.46 38.66 L 2.23 20.67 A 4.2 4.2 0 0 0 -6.17 20.76 L -7.04 38.77 A 5.25 5.25 0 0 0 3.46 38.66 Z" fill="#6c5133"/><path d="M 3.46 38.66 L 2.23 20.67 A 4.2 4.2 0 0 0 -6.17 20.76 L -7.04 38.77 A 5.25 5.25 0 0 0 3.46 38.66 Z" fill="#8b6841" transform="translate(-0.44 0.8)"/></g><path d="M 3.46 38.66 L 2.23 20.67 A 4.2 4.2 0 0 0 -6.17 20.76 L -7.04 38.77 A 5.25 5.25 0 0 0 3.46 38.66 Z" fill="none" stroke="#22150c" stroke-width="1.48" stroke-linejoin="round"/><path d="M 2.52 18.35 L 2.01 13.12 A 4.41 4.41 0 0 0 -6.8 13.63 L -6.7 18.88 A 4.62 4.62 0 0 0 2.52 18.35 Z" fill="#8b6841"/><path d="M 2.52 18.35 L 2.01 13.12 A 4.41 4.41 0 0 0 -6.8 13.63 L -6.7 18.88 A 4.62 4.62 0 0 0 2.52 18.35 Z" fill="none" stroke="#22150c" stroke-width="1.13" stroke-linejoin="round"/><g clip-path="url(#blue-guard-1-c-5)"><path d="M -6.97 3.74 L -6.97 8.74 A 3.99 3.99 0 0 0 1.01 8.74 L 1.01 3.74 A 3.99 3.99 0 0 0 -6.97 3.74 Z" fill="#372416"/><path d="M -6.97 3.74 L -6.97 8.74 A 3.99 3.99 0 0 0 1.01 8.74 L 1.01 3.74 A 3.99 3.99 0 0 0 -6.97 3.74 Z" fill="#472e1c" transform="translate(-0.28 0.5)"/></g><path d="M -6.97 3.74 L -6.97 8.74 A 3.99 3.99 0 0 0 1.01 8.74 L 1.01 3.74 A 3.99 3.99 0 0 0 -6.97 3.74 Z" fill="none" stroke="#22150c" stroke-width="1.48" stroke-linejoin="round"/><g clip-path="url(#blue-guard-1-c-6)"><path d="M -5.68 0.64 C -5.99 1.31 -6.36 5.25 -5.68 5.74 C -4.99 6.23 -1.09 5.29 0.17 4.84 C 1.44 4.4 4.65 2.44 5.17 1.93 C 5.7 1.41 5.63 0.65 4.67 0.43 C 3.72 0.21 -1.77 0.02 -2.98 0.04 C -4.18 0.07 -5.36 -0.02 -5.68 0.64 Z" fill="#372416"/><path d="M -5.68 0.64 C -5.99 1.31 -6.36 5.25 -5.68 5.74 C -4.99 6.23 -1.09 5.29 0.17 4.84 C 1.44 4.4 4.65 2.44 5.17 1.93 C 5.7 1.41 5.63 0.65 4.67 0.43 C 3.72 0.21 -1.77 0.02 -2.98 0.04 C -4.18 0.07 -5.36 -0.02 -5.68 0.64 Z" fill="#472e1c" transform="translate(-0.28 0.5)"/></g><path d="M -5.68 0.64 C -5.99 1.31 -6.36 5.25 -5.68 5.74 C -4.99 6.23 -1.09 5.29 0.17 4.84 C 1.44 4.4 4.65 2.44 5.17 1.93 C 5.7 1.41 5.63 0.65 4.67 0.43 C 3.72 0.21 -1.77 0.02 -2.98 0.04 C -4.18 0.07 -5.36 -0.02 -5.68 0.64 Z" fill="none" stroke="#22150c" stroke-width="1.48" stroke-linejoin="round"/><g clip-path="url(#blue-guard-1-c-7)"><path d="M 6.05 21.14 L 6.89 3.66 A 3.44 3.44 0 0 0 0.02 3.11 L -1.9 20.52 A 3.99 3.99 0 0 0 6.05 21.14 Z" fill="#af794c"/><path d="M 6.05 21.14 L 6.89 3.66 A 3.44 3.44 0 0 0 0.02 3.11 L -1.9 20.52 A 3.99 3.99 0 0 0 6.05 21.14 Z" fill="#e09b62" transform="translate(-0.38 0.7)"/></g><path d="M 6.05 21.14 L 6.89 3.66 A 3.44 3.44 0 0 0 0.02 3.11 L -1.9 20.52 A 3.99 3.99 0 0 0 6.05 21.14 Z" fill="none" stroke="#22150c" stroke-width="1.48" stroke-linejoin="round"/><g clip-path="url(#blue-guard-1-c-8)"><path d="M 5.02 39.35 L 6.24 21.36 A 4.2 4.2 0 0 0 -2.09 20.3 L -5.4 38.02 A 5.25 5.25 0 0 0 5.02 39.35 Z" fill="#84633e"/><path d="M 5.02 39.35 L 6.24 21.36 A 4.2 4.2 0 0 0 -2.09 20.3 L -5.4 38.02 A 5.25 5.25 0 0 0 5.02 39.35 Z" fill="#a97f4f" transform="translate(-0.44 0.8)"/></g><path d="M 5.02 39.35 L 6.24 21.36 A 4.2 4.2 0 0 0 -2.09 20.3 L -5.4 38.02 A 5.25 5.25 0 0 0 5.02 39.35 Z" fill="none" stroke="#22150c" stroke-width="1.48" stroke-linejoin="round"/><path d="M 6.85 19.1 L 7.05 13.85 A 4.41 4.41 0 0 0 -1.74 13.15 L -2.36 18.37 A 4.62 4.62 0 0 0 6.85 19.1 Z" fill="#a97f4f"/><path d="M 6.85 19.1 L 7.05 13.85 A 4.41 4.41 0 0 0 -1.74 13.15 L -2.36 18.37 A 4.62 4.62 0 0 0 6.85 19.1 Z" fill="none" stroke="#22150c" stroke-width="1.13" stroke-linejoin="round"/><g clip-path="url(#blue-guard-1-c-9)"><path d="M -0.54 3.88 L -0.54 8.88 A 3.99 3.99 0 0 0 7.44 8.88 L 7.44 3.88 A 3.99 3.99 0 0 0 -0.54 3.88 Z" fill="#442c1b"/><path d="M -0.54 3.88 L -0.54 8.88 A 3.99 3.99 0 0 0 7.44 8.88 L 7.44 3.88 A 3.99 3.99 0 0 0 -0.54 3.88 Z" fill="#573822" transform="translate(-0.28 0.5)"/></g><path d="M -0.54 3.88 L -0.54 8.88 A 3.99 3.99 0 0 0 7.44 8.88 L 7.44 3.88 A 3.99 3.99 0 0 0 -0.54 3.88 Z" fill="none" stroke="#22150c" stroke-width="1.48" stroke-linejoin="round"/><g clip-path="url(#blue-guard-1-c-10)"><path d="M 0.75 0.78 C 0.44 1.45 0.07 5.39 0.75 5.88 C 1.44 6.37 5.34 5.43 6.6 4.98 C 7.87 4.53 11.08 2.54 11.6 2.02 C 12.13 1.5 12.05 0.73 11.1 0.52 C 10.15 0.31 4.66 0.15 3.45 0.18 C 2.25 0.21 1.07 0.12 0.75 0.78 Z" fill="#442c1b"/><path d="M 0.75 0.78 C 0.44 1.45 0.07 5.39 0.75 5.88 C 1.44 6.37 5.34 5.43 6.6 4.98 C 7.87 4.53 11.08 2.54 11.6 2.02 C 12.13 1.5 12.05 0.73 11.1 0.52 C 10.15 0.31 4.66 0.15 3.45 0.18 C 2.25 0.21 1.07 0.12 0.75 0.78 Z" fill="#573822" transform="translate(-0.28 0.5)"/></g><path d="M 0.75 0.78 C 0.44 1.45 0.07 5.39 0.75 5.88 C 1.44 6.37 5.34 5.43 6.6 4.98 C 7.87 4.53 11.08 2.54 11.6 2.02 C 12.13 1.5 12.05 0.73 11.1 0.52 C 10.15 0.31 4.66 0.15 3.45 0.18 C 2.25 0.21 1.07 0.12 0.75 0.78 Z" fill="none" stroke="#22150c" stroke-width="1.48" stroke-linejoin="round"/><g clip-path="url(#blue-guard-1-c-11)"><path d="M -10.01 37.86 C -11.24 39.2 -10.37 44.32 -10.27 46.56 C -10.18 48.81 -9.66 52.87 -9.3 54.69 C -8.94 56.5 -8.7 59.21 -7.54 60.16 C -6.38 61.11 -2.44 61.83 -0.59 61.8 C 1.26 61.76 5.06 60.96 6.3 59.92 C 7.54 58.87 8.43 55.76 8.69 53.93 C 8.95 52.11 8.39 48.42 8.28 46.24 C 8.17 44.05 9.09 38.84 7.85 37.55 C 6.61 36.25 1.35 36.46 -1.03 36.5 C -3.41 36.54 -8.78 36.52 -10.01 37.86 Z" fill="#395369"/><path d="M -10.01 37.86 C -11.24 39.2 -10.37 44.32 -10.27 46.56 C -10.18 48.81 -9.66 52.87 -9.3 54.69 C -8.94 56.5 -8.7 59.21 -7.54 60.16 C -6.38 61.11 -2.44 61.83 -0.59 61.8 C 1.26 61.76 5.06 60.96 6.3 59.92 C 7.54 58.87 8.43 55.76 8.69 53.93 C 8.95 52.11 8.39 48.42 8.28 46.24 C 8.17 44.05 9.09 38.84 7.85 37.55 C 6.61 36.25 1.35 36.46 -1.03 36.5 C -3.41 36.54 -8.78 36.52 -10.01 37.86 Z" fill="#496a87" transform="translate(-0.72 1.3)"/></g><path d="M -10.01 37.86 C -11.24 39.2 -10.37 44.32 -10.27 46.56 C -10.18 48.81 -9.66 52.87 -9.3 54.69 C -8.94 56.5 -8.7 59.21 -7.54 60.16 C -6.38 61.11 -2.44 61.83 -0.59 61.8 C 1.26 61.76 5.06 60.96 6.3 59.92 C 7.54 58.87 8.43 55.76 8.69 53.93 C 8.95 52.11 8.39 48.42 8.28 46.24 C 8.17 44.05 9.09 38.84 7.85 37.55 C 6.61 36.25 1.35 36.46 -1.03 36.5 C -3.41 36.54 -8.78 36.52 -10.01 37.86 Z" fill="none" stroke="#22150c" stroke-width="1.48" stroke-linejoin="round"/><path d="M -6.38 59.83 L -3.68 39.98 A 0.9 0.9 0 0 0 -5.46 39.74 L -8.16 59.59 A 0.9 0.9 0 0 0 -6.38 59.83 Z" fill="#a36b3d"/><path d="M -6.38 59.83 L -3.68 39.98 A 0.9 0.9 0 0 0 -5.46 39.74 L -8.16 59.59 A 0.9 0.9 0 0 0 -6.38 59.83 Z" fill="none" stroke="#22150c" stroke-width="0.49" stroke-linejoin="round"/><g clip-path="url(#blue-guard-1-c-12)"><path d="M 2.94 92.14 C 1.15 93.06 -10.13 89.86 -12.89 87.47 C -15.66 85.07 -16.57 78.29 -16.56 75.23 C -16.55 72.17 -14.46 66.63 -12.82 65.86 C -11.18 65.09 -6.73 67.64 -4.95 69.77 C -3.17 71.91 -1.37 77.78 -0.25 80.94 C 0.86 84.11 4.73 91.22 2.94 92.14 Z" fill="#342319"/><path d="M 2.94 92.14 C 1.15 93.06 -10.13 89.86 -12.89 87.47 C -15.66 85.07 -16.57 78.29 -16.56 75.23 C -16.55 72.17 -14.46 66.63 -12.82 65.86 C -11.18 65.09 -6.73 67.64 -4.95 69.77 C -3.17 71.91 -1.37 77.78 -0.25 80.94 C 0.86 84.11 4.73 91.22 2.94 92.14 Z" fill="#432d20" transform="translate(-0.38 0.7)"/></g><path d="M 2.94 92.14 C 1.15 93.06 -10.13 89.86 -12.89 87.47 C -15.66 85.07 -16.57 78.29 -16.56 75.23 C -16.55 72.17 -14.46 66.63 -12.82 65.86 C -11.18 65.09 -6.73 67.64 -4.95 69.77 C -3.17 71.91 -1.37 77.78 -0.25 80.94 C 0.86 84.11 4.73 91.22 2.94 92.14 Z" fill="none" stroke="#22150c" stroke-width="1.48" stroke-linejoin="round"/><g clip-path="url(#blue-guard-1-c-13)"><path d="M -6.61 59.63 L -6.98 65.14 A 5.7 5.7 0 0 0 4.42 65.28 L 4.19 59.77 A 5.4 5.4 0 0 0 -6.61 59.63 Z" fill="#9a6a43"/><path d="M -6.61 59.63 L -6.98 65.14 A 5.7 5.7 0 0 0 4.42 65.28 L 4.19 59.77 A 5.4 5.4 0 0 0 -6.61 59.63 Z" fill="#c58856" transform="translate(-0.28 0.5)"/></g><path d="M -6.61 59.63 L -6.98 65.14 A 5.7 5.7 0 0 0 4.42 65.28 L 4.19 59.77 A 5.4 5.4 0 0 0 -6.61 59.63 Z" fill="none" stroke="#22150c" stroke-width="1.48" stroke-linejoin="round"/><g clip-path="url(#blue-guard-1-c-14)"><path d="M -13.44 81.92 C -12.32 85.21 -7.22 90.1 -3.83 91.06 C -0.44 92.01 6.46 90.02 9.17 88.28 C 11.89 86.54 13.41 81.71 14.27 79.49 C 15.13 77.27 15.05 74.78 14.92 73.48 C 14.78 72.17 13.75 71.79 13.37 70.8 C 12.99 69.82 13.37 68.23 12.4 66.92 C 11.43 65.61 9.09 62.77 6.92 62.07 C 4.74 61.36 0.64 61.16 -2.08 62.22 C -4.81 63.28 -9.56 66.18 -11.26 69.13 C -12.97 72.09 -14.55 78.64 -13.44 81.92 Z" fill="#af794c"/><path d="M -13.44 81.92 C -12.32 85.21 -7.22 90.1 -3.83 91.06 C -0.44 92.01 6.46 90.02 9.17 88.28 C 11.89 86.54 13.41 81.71 14.27 79.49 C 15.13 77.27 15.05 74.78 14.92 73.48 C 14.78 72.17 13.75 71.79 13.37 70.8 C 12.99 69.82 13.37 68.23 12.4 66.92 C 11.43 65.61 9.09 62.77 6.92 62.07 C 4.74 61.36 0.64 61.16 -2.08 62.22 C -4.81 63.28 -9.56 66.18 -11.26 69.13 C -12.97 72.09 -14.55 78.64 -13.44 81.92 Z" fill="#e09b62" transform="translate(-0.5 0.9)"/><path d="M -13.44 81.92 C -12.32 85.21 -7.22 90.1 -3.83 91.06 C -0.44 92.01 6.46 90.02 9.17 88.28 C 11.89 86.54 13.41 81.71 14.27 79.49 C 15.13 77.27 15.05 74.78 14.92 73.48 C 14.78 72.17 13.75 71.79 13.37 70.8 C 12.99 69.82 13.37 68.23 12.4 66.92 C 11.43 65.61 9.09 62.77 6.92 62.07 C 4.74 61.36 0.64 61.16 -2.08 62.22 C -4.81 63.28 -9.56 66.18 -11.26 69.13 C -12.97 72.09 -14.55 78.64 -13.44 81.92 Z" fill="#e4a775" transform="translate(-1.26 1.98)" opacity="0.55"/></g><path d="M -13.44 81.92 C -12.32 85.21 -7.22 90.1 -3.83 91.06 C -0.44 92.01 6.46 90.02 9.17 88.28 C 11.89 86.54 13.41 81.71 14.27 79.49 C 15.13 77.27 15.05 74.78 14.92 73.48 C 14.78 72.17 13.75 71.79 13.37 70.8 C 12.99 69.82 13.37 68.23 12.4 66.92 C 11.43 65.61 9.09 62.77 6.92 62.07 C 4.74 61.36 0.64 61.16 -2.08 62.22 C -4.81 63.28 -9.56 66.18 -11.26 69.13 C -12.97 72.09 -14.55 78.64 -13.44 81.92 Z" fill="none" stroke="#22150c" stroke-width="1.48" stroke-linejoin="round"/><path d="M -0.65 75.75 C -0.65 76.68 -0.94 77.63 -1.44 78.29 C -1.93 78.95 -2.65 79.35 -3.35 79.35 C -4.05 79.35 -4.76 78.95 -5.26 78.29 C -5.75 77.63 -6.05 76.68 -6.05 75.75 C -6.05 74.81 -5.75 73.86 -5.26 73.2 C -4.76 72.54 -4.05 72.15 -3.35 72.15 C -2.65 72.15 -1.93 72.54 -1.44 73.2 C -0.94 73.86 -0.65 74.81 -0.65 75.75 Z" fill="#ce8f5a"/><path d="M -0.65 75.75 C -0.65 76.68 -0.94 77.63 -1.44 78.29 C -1.93 78.95 -2.65 79.35 -3.35 79.35 C -4.05 79.35 -4.76 78.95 -5.26 78.29 C -5.75 77.63 -6.05 76.68 -6.05 75.75 C -6.05 74.81 -5.75 73.86 -5.26 73.2 C -4.76 72.54 -4.05 72.15 -3.35 72.15 C -2.65 72.15 -1.93 72.54 -1.44 73.2 C -0.94 73.86 -0.65 74.81 -0.65 75.75 Z" fill="none" stroke="#22150c" stroke-width="0.78" stroke-linejoin="round"/><path d="M 10.32 76.59 C 10.32 77.37 10.11 78.16 9.75 78.71 C 9.39 79.26 8.88 79.59 8.37 79.59 C 7.86 79.59 7.35 79.26 6.99 78.71 C 6.63 78.16 6.42 77.37 6.42 76.59 C 6.42 75.81 6.63 75.02 6.99 74.47 C 7.35 73.92 7.86 73.59 8.37 73.59 C 8.88 73.59 9.39 73.92 9.75 74.47 C 10.11 75.02 10.32 75.81 10.32 76.59 Z" fill="#22150c"/><path d="M 8.47 77.8 C 8.47 78 8.39 78.2 8.27 78.33 C 8.15 78.47 7.97 78.55 7.79 78.55 C 7.62 78.55 7.44 78.47 7.31 78.33 C 7.19 78.2 7.12 78 7.12 77.8 C 7.12 77.61 7.19 77.41 7.31 77.27 C 7.44 77.13 7.62 77.05 7.79 77.05 C 7.97 77.05 8.15 77.13 8.27 77.27 C 8.39 77.41 8.47 77.61 8.47 77.8 Z" fill="#fff8ea"/><path d="M 5.75 81.29 C 6.25 81.43 7.82 82.15 8.77 82.14 C 9.72 82.12 11 81.35 11.45 81.19" fill="none" stroke="#36241a" stroke-width="0.78" stroke-linecap="round" stroke-linejoin="round"/><path d="M 13.77 76.5 C 14.21 76.6 16.43 73.71 16.56 73.15 C 16.69 72.59 15.32 71.78 14.89 71.68 C 14.45 71.58 12.93 71.75 12.8 72.31 C 12.67 72.88 13.33 76.4 13.77 76.5 Z" fill="#d7955e"/><path d="M 13.77 76.5 C 14.21 76.6 16.43 73.71 16.56 73.15 C 16.69 72.59 15.32 71.78 14.89 71.68 C 14.45 71.58 12.93 71.75 12.8 72.31 C 12.67 72.88 13.33 76.4 13.77 76.5 Z" fill="none" stroke="#22150c" stroke-width="0.78" stroke-linejoin="round"/><path d="M 9.43 68.77 C 9.78 68.67 10.92 68.1 11.52 68.14 C 12.12 68.18 12.79 68.86 13.04 69.01" fill="none" stroke="#7b5536" stroke-width="0.78" stroke-linecap="round" stroke-linejoin="round"/><path d="M 9.79 72.11 C 9.79 72.46 9.53 72.82 9.09 73.06 C 8.65 73.31 8.01 73.46 7.39 73.46 C 6.77 73.46 6.13 73.31 5.69 73.06 C 5.25 72.82 4.99 72.46 4.99 72.11 C 4.99 71.76 5.25 71.4 5.69 71.15 C 6.13 70.91 6.77 70.76 7.39 70.76 C 8.01 70.76 8.65 70.91 9.09 71.15 C 9.53 71.4 9.79 71.76 9.79 72.11 Z" fill="#d9806a" opacity="0.35"/><g clip-path="url(#blue-guard-1-c-15)"><path d="M -15.58 79.71 C -16.07 81.38 -15.3 87.85 -14.36 89.44 C -13.42 91.03 -8.77 93.1 -7.54 93.37 C -6.31 93.65 -4.78 91.61 -3.82 91.81 C -2.85 92 -0.31 95.05 0.74 95.03 C 1.79 95.01 4.02 91.95 5.18 91.65 C 6.35 91.35 10.21 92.88 10.75 92.45 C 11.28 92.02 9.33 88.78 9.77 87.97 C 10.21 87.16 14.73 85.94 14.53 85.49 C 14.33 85.03 9.24 84.01 8.05 84.1 C 6.86 84.19 5.22 86.42 4.34 86.26 C 3.46 86.1 1.76 83.34 0.53 82.73 C -0.71 82.12 -5.01 81.94 -6.25 81.05 C -7.49 80.16 -9.02 75.27 -10.11 75.11 C -11.2 74.96 -15.08 78.04 -15.58 79.71 Z" fill="#342319"/><path d="M -15.58 79.71 C -16.07 81.38 -15.3 87.85 -14.36 89.44 C -13.42 91.03 -8.77 93.1 -7.54 93.37 C -6.31 93.65 -4.78 91.61 -3.82 91.81 C -2.85 92 -0.31 95.05 0.74 95.03 C 1.79 95.01 4.02 91.95 5.18 91.65 C 6.35 91.35 10.21 92.88 10.75 92.45 C 11.28 92.02 9.33 88.78 9.77 87.97 C 10.21 87.16 14.73 85.94 14.53 85.49 C 14.33 85.03 9.24 84.01 8.05 84.1 C 6.86 84.19 5.22 86.42 4.34 86.26 C 3.46 86.1 1.76 83.34 0.53 82.73 C -0.71 82.12 -5.01 81.94 -6.25 81.05 C -7.49 80.16 -9.02 75.27 -10.11 75.11 C -11.2 74.96 -15.08 78.04 -15.58 79.71 Z" fill="#432d20" transform="translate(-0.38 0.7)"/></g><path d="M -15.58 79.71 C -16.07 81.38 -15.3 87.85 -14.36 89.44 C -13.42 91.03 -8.77 93.1 -7.54 93.37 C -6.31 93.65 -4.78 91.61 -3.82 91.81 C -2.85 92 -0.31 95.05 0.74 95.03 C 1.79 95.01 4.02 91.95 5.18 91.65 C 6.35 91.35 10.21 92.88 10.75 92.45 C 11.28 92.02 9.33 88.78 9.77 87.97 C 10.21 87.16 14.73 85.94 14.53 85.49 C 14.33 85.03 9.24 84.01 8.05 84.1 C 6.86 84.19 5.22 86.42 4.34 86.26 C 3.46 86.1 1.76 83.34 0.53 82.73 C -0.71 82.12 -5.01 81.94 -6.25 81.05 C -7.49 80.16 -9.02 75.27 -10.11 75.11 C -11.2 74.96 -15.08 78.04 -15.58 79.71 Z" fill="none" stroke="#22150c" stroke-width="1.48" stroke-linejoin="round"/><g clip-path="url(#blue-guard-1-c-16)"><path d="M 4.19 41.83 L 0.99 59.71 L 0.02 63.59 L 2.23 64.26 L 3.96 60.6 L 9.55 43.45 Z" fill="#53351c"/><path d="M 4.19 41.83 L 0.99 59.71 L 0.02 63.59 L 2.23 64.26 L 3.96 60.6 L 9.55 43.45 Z" fill="#6b4424" transform="translate(-0.33 0.6)"/></g><path d="M 4.19 41.83 L 0.99 59.71 L 0.02 63.59 L 2.23 64.26 L 3.96 60.6 L 9.55 43.45 Z" fill="none" stroke="#22150c" stroke-width="1.06" stroke-linejoin="round"/><path d="M 0.94 61.78 L -10.5 100.2 A 0.6 0.6 0 0 0 -9.35 100.54 L 2.37 62.21 A 0.75 0.75 0 0 0 0.94 61.78 Z" fill="#4a4640"/><path d="M 0.94 61.78 L -10.5 100.2 A 0.6 0.6 0 0 0 -9.35 100.54 L 2.37 62.21 A 0.75 0.75 0 0 0 0.94 61.78 Z" fill="none" stroke="#22150c" stroke-width="0.92" stroke-linejoin="round"/><path d="M 0.79 61.74 L -8.38 92.48 A 0.8 0.8 0 0 0 -6.85 92.94 L 2.52 62.26 A 0.9 0.9 0 0 0 0.79 61.74 Z" fill="#7a5030"/><path d="M 0.79 61.74 L -8.38 92.48 A 0.8 0.8 0 0 0 -6.85 92.94 L 2.52 62.26 A 0.9 0.9 0 0 0 0.79 61.74 Z" fill="none" stroke="#22150c" stroke-width="0.85" stroke-linejoin="round"/><path d="M 4.38 41.89 L 9.36 43.39" fill="none" stroke="#c8a040" stroke-width="0.85" stroke-linecap="round" stroke-linejoin="round"/><g clip-path="url(#blue-guard-1-c-17)"><path d="M 15.47 53.84 L 8.39 44.14 A 2.94 2.94 0 0 0 3.52 47.44 L 9.91 57.61 A 3.36 3.36 0 0 0 15.47 53.84 Z" fill="#af794c"/><path d="M 15.47 53.84 L 8.39 44.14 A 2.94 2.94 0 0 0 3.52 47.44 L 9.91 57.61 A 3.36 3.36 0 0 0 15.47 53.84 Z" fill="#e09b62" transform="translate(-0.33 0.6)"/></g><path d="M 15.47 53.84 L 8.39 44.14 A 2.94 2.94 0 0 0 3.52 47.44 L 9.91 57.61 A 3.36 3.36 0 0 0 15.47 53.84 Z" fill="none" stroke="#22150c" stroke-width="1.48" stroke-linejoin="round"/><g clip-path="url(#blue-guard-1-c-18)"><path d="M 0.51 62.05 L 13.26 59.46 A 3.78 3.78 0 0 0 12.12 51.99 L -0.83 53.33 A 4.41 4.41 0 0 0 0.51 62.05 Z" fill="#395369"/><path d="M 0.51 62.05 L 13.26 59.46 A 3.78 3.78 0 0 0 12.12 51.99 L -0.83 53.33 A 4.41 4.41 0 0 0 0.51 62.05 Z" fill="#496a87" transform="translate(-0.38 0.7)"/></g><path d="M 0.51 62.05 L 13.26 59.46 A 3.78 3.78 0 0 0 12.12 51.99 L -0.83 53.33 A 4.41 4.41 0 0 0 0.51 62.05 Z" fill="none" stroke="#22150c" stroke-width="1.48" stroke-linejoin="round"/><path d="M 16.84 55.09 C 16.97 55.9 16.64 56.79 15.96 57.48 C 15.29 58.16 14.24 58.67 13.17 58.84 C 12.09 59 10.94 58.83 10.09 58.37 C 9.24 57.92 8.66 57.17 8.54 56.36 C 8.41 55.55 8.74 54.66 9.42 53.97 C 10.09 53.28 11.14 52.77 12.21 52.61 C 13.29 52.44 14.44 52.62 15.29 53.07 C 16.14 53.53 16.72 54.28 16.84 55.09 Z" fill="#496a87"/><path d="M 16.84 55.09 C 16.97 55.9 16.64 56.79 15.96 57.48 C 15.29 58.16 14.24 58.67 13.17 58.84 C 12.09 59 10.94 58.83 10.09 58.37 C 9.24 57.92 8.66 57.17 8.54 56.36 C 8.41 55.55 8.74 54.66 9.42 53.97 C 10.09 53.28 11.14 52.77 12.21 52.61 C 13.29 52.44 14.44 52.62 15.29 53.07 C 16.14 53.53 16.72 54.28 16.84 55.09 Z" fill="none" stroke="#22150c" stroke-width="1.06" stroke-linejoin="round"/><g clip-path="url(#blue-guard-1-c-19)"><path d="M 9.06 45.79 C 9.06 46.55 8.72 47.32 8.15 47.86 C 7.58 48.39 6.76 48.71 5.95 48.71 C 5.15 48.71 4.33 48.39 3.76 47.86 C 3.19 47.32 2.85 46.55 2.85 45.79 C 2.85 45.03 3.19 44.26 3.76 43.73 C 4.33 43.19 5.15 42.87 5.95 42.87 C 6.76 42.87 7.58 43.19 8.15 43.73 C 8.72 44.26 9.06 45.03 9.06 45.79 Z" fill="#af794c"/><path d="M 9.06 45.79 C 9.06 46.55 8.72 47.32 8.15 47.86 C 7.58 48.39 6.76 48.71 5.95 48.71 C 5.15 48.71 4.33 48.39 3.76 47.86 C 3.19 47.32 2.85 46.55 2.85 45.79 C 2.85 45.03 3.19 44.26 3.76 43.73 C 4.33 43.19 5.15 42.87 5.95 42.87 C 6.76 42.87 7.58 43.19 8.15 43.73 C 8.72 44.26 9.06 45.03 9.06 45.79 Z" fill="#e09b62" transform="translate(-0.22 0.4)"/></g><path d="M 9.06 45.79 C 9.06 46.55 8.72 47.32 8.15 47.86 C 7.58 48.39 6.76 48.71 5.95 48.71 C 5.15 48.71 4.33 48.39 3.76 47.86 C 3.19 47.32 2.85 46.55 2.85 45.79 C 2.85 45.03 3.19 44.26 3.76 43.73 C 4.33 43.19 5.15 42.87 5.95 42.87 C 6.76 42.87 7.58 43.19 8.15 43.73 C 8.72 44.26 9.06 45.03 9.06 45.79 Z" fill="none" stroke="#22150c" stroke-width="1.48" stroke-linejoin="round"/></g></g>
</svg>
